<?xml version="1.0" standalone="no"?>
<!DOCTYPE svg PUBLIC "-//W3C//DTD SVG 20010904//EN"
 "http://www.w3.org/TR/2001/REC-SVG-20010904/DTD/svg10.dtd">
<svg version="1.0" xmlns="http://www.w3.org/2000/svg"
 width="452.000000pt" height="452.000000pt" viewBox="0 0 452.000000 452.000000"
 preserveAspectRatio="xMidYMid meet">

<g transform="translate(0.000000,452.000000) scale(0.100000,-0.100000)"
fill="#000000" stroke="none">
<path d="M848 4098 l-3 -143 -125 -5 c-114 -5 -131 -8 -192 -37 -119 -56 -209
-171 -237 -301 -16 -75 -16 -2629 0 -2704 39 -181 183 -314 370 -338 99 -13
2818 -13 2919 0 196 25 345 174 370 370 13 100 13 2540 0 2640 -19 144 -107
268 -239 333 -62 30 -73 32 -193 36 l-128 3 0 144 0 144 -140 0 -139 0 -3
-142 -3 -143 -987 -3 -988 -2 0 145 0 145 -140 0 -139 0 -3 -142z m2 -568 l0
-140 140 0 140 0 0 140 0 140 990 0 990 0 0 -140 0 -140 140 0 140 0 0 140 0
140 93 0 c74 0 98 -4 124 -20 59 -36 63 -54 63 -310 l0 -230 -1550 0 -1550 0
0 230 c0 256 4 274 63 310 26 16 50 20 125 20 l92 0 0 -140z m2820 -1645 c0
-1033 4 -975 -63 -1015 -31 -20 -62 -20 -1487 -20 -1425 0 -1456 0 -1487 20
-67 40 -63 -18 -63 1015 l0 935 1550 0 1550 0 0 -935z"/>
<path d="M1410 2400 l0 -140 145 0 145 0 0 140 0 140 -145 0 -145 0 0 -140z"/>
<path d="M1980 2400 l0 -140 140 0 140 0 0 140 0 140 -140 0 -140 0 0 -140z"/>
<path d="M2540 2400 l0 -140 145 0 145 0 0 140 0 140 -145 0 -145 0 0 -140z"/>
<path d="M3110 2400 l0 -140 140 0 140 0 0 140 0 140 -140 0 -140 0 0 -140z"/>
<path d="M850 1835 l0 -145 140 0 140 0 0 145 0 145 -140 0 -140 0 0 -145z"/>
<path d="M1412 1838 l3 -143 140 0 140 0 0 140 0 140 -143 3 -143 3 3 -143z"/>
<path d="M1980 1835 l0 -145 140 0 140 0 0 145 0 145 -140 0 -140 0 0 -145z"/>
<path d="M2542 1838 l3 -143 140 0 140 0 0 140 0 140 -143 3 -143 3 3 -143z"/>
<path d="M3110 1835 l0 -145 140 0 140 0 0 145 0 145 -140 0 -140 0 0 -145z"/>
<path d="M850 1270 l0 -140 140 0 140 0 0 140 0 140 -140 0 -140 0 0 -140z"/>
<path d="M1410 1270 l0 -140 145 0 145 0 0 140 0 140 -145 0 -145 0 0 -140z"/>
<path d="M1980 1270 l0 -140 140 0 140 0 0 140 0 140 -140 0 -140 0 0 -140z"/>
</g>
</svg>
