<?xml version="1.0" standalone="no"?>
<!DOCTYPE svg PUBLIC "-//W3C//DTD SVG 20010904//EN"
 "http://www.w3.org/TR/2001/REC-SVG-20010904/DTD/svg10.dtd">
<svg version="1.0" xmlns="http://www.w3.org/2000/svg"
 width="900.000000pt" height="520.000000pt" viewBox="0 0 900.000000 520.000000"
 preserveAspectRatio="xMidYMid meet">

<g transform="translate(0.000000,520.000000) scale(0.100000,-0.100000)"
fill="#000000" stroke="none">
<path d="M4270 4956 l0 -244 -87 -12 c-205 -28 -413 -91 -602 -181 -619 -295
-1046 -880 -1141 -1561 l-12 -88 -244 0 -244 0 0 -230 0 -230 244 0 244 0 12
-72 c103 -657 497 -1222 1070 -1536 197 -107 453 -192 673 -222 l87 -12 0
-244 0 -244 230 0 230 0 0 245 c0 135 3 245 6 245 29 0 172 27 267 51 821 205
1440 884 1558 1706 l11 83 244 0 244 0 0 230 0 230 -244 0 -245 0 -6 48 c-11
78 -55 272 -82 357 -175 558 -617 1050 -1153 1280 -159 68 -377 128 -547 150
l-53 7 0 244 0 244 -230 0 -230 0 0 -244z m495 -710 c229 -36 444 -121 650
-258 358 -238 610 -626 686 -1057 25 -139 30 -388 10 -526 -92 -648 -565
-1176 -1199 -1339 -146 -38 -241 -49 -407 -50 -168 0 -285 14 -424 51 -283 75
-507 201 -714 402 -260 252 -426 577 -478 936 -20 135 -15 386 9 525 101 565
490 1033 1028 1235 134 50 247 75 464 99 60 7 281 -4 375 -18z"/>
<path d="M4380 3564 c-143 -26 -251 -64 -349 -123 -223 -133 -371 -334 -437
-591 -26 -101 -26 -325 0 -420 53 -200 143 -352 280 -477 267 -241 647 -307
983 -171 266 108 474 353 549 648 28 111 26 325 -5 440 -88 333 -343 584 -686
675 -58 16 -284 28 -335 19z"/>
</g>
</svg>
