<?xml version="1.0" standalone="no"?>
<!DOCTYPE svg PUBLIC "-//W3C//DTD SVG 20010904//EN"
 "http://www.w3.org/TR/2001/REC-SVG-20010904/DTD/svg10.dtd">
<svg version="1.0" xmlns="http://www.w3.org/2000/svg"
 width="840.000000pt" height="859.000000pt" viewBox="0 0 840.000000 859.000000"
 preserveAspectRatio="xMidYMid meet">

<g transform="translate(0.000000,859.000000) scale(0.100000,-0.100000)"
fill="#000000" stroke="none">
<path d="M3955 8464 c-625 -51 -1122 -188 -1635 -452 -1185 -609 -2021 -1748
-2234 -3043 -40 -248 -51 -386 -51 -674 0 -373 32 -649 116 -989 396 -1605
1736 -2851 3360 -3125 271 -46 400 -56 694 -56 373 0 647 32 986 116 785 193
1534 636 2071 1227 571 626 923 1337 1058 2135 44 265 55 397 55 692 0 295
-11 427 -55 692 -118 695 -411 1346 -858 1903 -703 878 -1705 1432 -2816 1556
-126 15 -588 26 -691 18z m455 -344 c369 -22 659 -77 995 -187 1142 -375 2045
-1273 2432 -2418 206 -610 253 -1299 132 -1925 -154 -794 -552 -1512 -1137
-2054 l-107 -99 -7 113 c-22 342 -98 627 -250 932 -310 621 -862 1100 -1523
1321 l-99 34 114 56 c142 69 240 133 351 230 262 229 445 556 522 932 19 94
22 141 22 325 0 186 -4 230 -23 322 -142 666 -642 1169 -1296 1303 -745 154
-1504 -226 -1830 -916 -91 -194 -138 -370 -154 -577 -25 -340 54 -673 232
-976 162 -275 444 -540 698 -656 43 -19 77 -38 78 -41 0 -4 -28 -14 -62 -24
-210 -58 -481 -185 -690 -324 -663 -441 -1076 -1154 -1116 -1928 l-7 -126
-110 100 c-504 461 -899 1121 -1078 1803 -143 543 -161 1134 -51 1695 181 928
708 1763 1473 2334 453 337 1000 580 1547 685 333 64 629 85 944 66z"/>
</g>
</svg>
