<?xml version="1.0" standalone="no"?>
<!DOCTYPE svg PUBLIC "-//W3C//DTD SVG 20010904//EN"
 "http://www.w3.org/TR/2001/REC-SVG-20010904/DTD/svg10.dtd">
<svg version="1.0" xmlns="http://www.w3.org/2000/svg"
 width="463.000000pt" height="463.000000pt" viewBox="0 0 463.000000 463.000000"
 preserveAspectRatio="xMidYMid meet">

<g transform="translate(0.000000,463.000000) scale(0.100000,-0.100000)"
fill="#000000" stroke="none">
<path d="M340 2310 c0 -1904 1 -1980 18 -1980 10 0 27 -7 38 -15 16 -12 269
-14 1956 -15 1925 0 1938 0 1958 20 20 20 20 33 20 1956 0 1921 0 1936 -20
1961 -11 14 -20 32 -20 39 0 8 -10 14 -21 14 -19 0 -21 -4 -16 -30 5 -21 3
-29 -6 -27 -13 2 -13 -10 -2 -58 5 -23 4 -26 -4 -15 -9 13 -11 13 -11 -2 0 -9
5 -20 11 -24 7 -4 9 -24 5 -56 -7 -52 0 -80 15 -57 7 12 9 11 10 -1 1 -8 5 8
9 35 8 61 13 -378 12 -1243 0 -604 -2 -655 -18 -673 -11 -13 -14 -23 -7 -31 5
-7 13 -22 17 -32 5 -15 4 -16 -7 -8 -10 9 -12 4 -9 -25 3 -19 8 -30 11 -24 4
6 8 -87 9 -207 2 -155 -1 -213 -8 -202 -9 12 -10 8 -8 -15 2 -25 -1 -31 -19
-33 -13 -2 -23 1 -23 7 0 6 5 11 11 11 14 0 4 79 -12 94 -14 15 -11 36 6 36 8
0 15 7 15 16 0 10 -6 13 -19 9 -44 -14 -49 26 -36 353 6 165 5 222 -4 222 -7
0 -11 -37 -12 -117 -1 -105 -4 -322 -8 -470 -1 -38 -5 -53 -15 -53 -11 0 -13
-10 -9 -40 3 -21 2 -47 -2 -57 -8 -19 -14 -88 -15 -160 -1 -25 -6 -43 -12 -43
-14 0 -4 -108 11 -123 6 -6 11 -21 11 -33 0 -12 7 -34 15 -50 13 -25 13 -31
-1 -52 -11 -17 -12 -27 -5 -36 12 -14 10 -90 -2 -102 -10 -11 -9 -48 5 -100
11 -38 10 -50 -3 -73 -12 -21 -14 -39 -7 -86 9 -70 9 -58 6 -163 -2 -45 0 -82
5 -82 13 0 8 -23 -9 -42 -16 -16 -16 -18 0 -24 9 -3 16 -13 16 -21 0 -12 -3
-13 -14 -4 -11 9 -15 8 -20 -5 -9 -23 -8 -24 17 -25 15 -1 11 -4 -13 -10 -51
-12 -67 -4 -64 31 1 17 -1 30 -4 30 -4 0 -8 22 -10 49 -2 36 1 50 13 54 8 4
12 13 9 22 -3 8 -10 12 -15 9 -5 -3 -9 10 -9 28 0 19 -6 40 -13 47 -9 11 -9
14 1 18 6 3 12 14 11 26 0 21 -1 21 -10 2 -7 -15 -8 -13 -3 10 4 17 7 36 7 43
1 30 23 1 29 -39 4 -24 4 -3 1 46 -4 50 -6 101 -5 115 7 111 6 150 -4 146 -7
-3 -17 14 -24 39 -10 36 -10 52 3 92 13 43 14 94 7 213 l-3 35 -7 -35 c-4 -21
-8 32 -9 133 -1 142 1 167 14 167 10 0 15 10 15 30 0 17 5 30 10 30 6 0 9 12
9 28 -1 16 -3 20 -6 10 -5 -19 -18 -24 -26 -10 -3 4 -8 40 -12 80 -6 62 -5 72
9 72 19 0 20 13 4 43 -6 12 -13 66 -14 119 -1 53 -5 102 -9 107 -3 6 1 25 9
43 17 34 22 62 6 38 -12 -19 -13 166 -1 228 5 24 5 45 0 48 -5 3 -8 307 -7
700 3 648 4 694 20 694 21 0 38 30 38 68 0 16 3 32 7 36 15 14 31 96 19 96 -6
0 -17 9 -24 20 -7 12 -17 18 -23 14 -7 -4 -9 3 -7 17 2 15 -2 23 -10 22 -8 -2
-12 11 -12 42 0 25 4 45 9 45 10 0 9 19 -2 38 -11 17 -243 17 -251 0 -5 -10
-7 -10 -12 0 -3 6 -12 12 -20 12 -24 0 -8 -128 32 -268 2 -7 8 -11 13 -8 11 7
2 48 -13 58 -18 12 2 21 31 14 15 -4 23 -10 17 -14 -11 -8 -13 -172 -1 -172
10 0 8 -76 -3 -125 -6 -26 -5 -44 2 -52 5 -7 7 -31 4 -55 -4 -33 -3 -37 4 -18
6 18 9 -7 8 -85 -1 -175 1 -215 11 -215 6 0 9 78 9 189 0 104 2 193 6 199 3 5
-3 12 -14 15 -11 3 -20 11 -20 17 0 7 7 10 16 6 12 -5 15 -2 12 12 -3 11 -2
26 3 35 5 8 11 54 14 101 3 48 12 110 19 139 l14 52 3 -40 c3 -27 8 -39 17
-37 8 1 11 -2 8 -7 -4 -5 0 -11 6 -14 10 -3 8 -8 -4 -18 -23 -18 -29 -84 -8
-84 23 0 31 -16 28 -60 -1 -26 2 -39 10 -38 16 4 15 -14 0 -20 -10 -3 -10 -7
-1 -19 7 -8 10 -27 8 -44 -5 -27 -4 -28 10 -10 15 19 15 19 15 -2 0 -13 -6
-22 -15 -22 -9 0 -15 -9 -15 -21 0 -15 5 -19 15 -15 12 4 15 -4 15 -39 0 -24
-5 -47 -10 -50 -5 -3 -10 2 -10 11 0 10 -3 15 -6 12 -6 -6 -7 -42 -5 -126 1
-28 5 -41 12 -37 6 4 8 13 5 21 -3 7 -1 16 4 19 17 11 11 -57 -6 -70 -13 -9
-17 -29 -17 -81 0 -122 2 -146 15 -138 7 4 8 3 4 -5 -4 -6 -9 -31 -11 -56 -4
-36 -2 -43 10 -39 12 5 15 -3 15 -39 0 -25 -4 -48 -10 -52 -5 -3 -6 -15 -2
-25 4 -11 6 -39 3 -63 -3 -33 -5 -38 -12 -22 -6 15 -8 11 -8 -17 -1 -21 -5
-38 -11 -38 -5 0 -10 -5 -10 -11 0 -5 5 -7 11 -3 9 5 10 -1 3 -22 -10 -33 -10
-112 0 -122 4 -3 11 0 16 8 9 13 10 13 11 0 6 -57 6 -78 2 -97 -5 -22 -5 -22
-42 6 -49 39 -92 50 -186 46 -44 -2 -89 -4 -100 -4 -20 -1 -20 -8 -20 -276 l0
-274 25 -3 c16 -2 25 -9 25 -20 0 -9 4 -20 8 -24 4 -4 7 5 7 20 0 27 1 27 53
25 l52 -3 -2 65 c-1 54 0 59 8 29 4 -19 6 -41 4 -47 -2 -7 -1 -13 4 -13 5 0 7
-12 5 -28 -2 -15 -4 -61 -5 -102 -1 -41 -6 -81 -13 -89 -8 -11 -8 -13 2 -7 9
5 12 -16 12 -98 0 -59 -4 -108 -10 -111 -6 -4 -8 -55 -6 -136 3 -84 1 -145 -7
-176 -10 -37 -10 -54 -1 -71 14 -29 19 -322 5 -322 -5 0 -12 13 -16 30 -4 16
-11 30 -15 30 -11 0 -29 -63 -31 -105 -1 -17 -3 -22 -6 -12 -2 9 -10 17 -16
17 -7 0 -6 4 3 10 10 6 11 10 3 10 -7 0 -13 6 -13 14 0 7 -6 19 -13 25 -18 15
-24 241 -6 241 6 0 9 8 6 20 -3 11 -1 36 4 57 5 23 4 42 -1 47 -14 14 -12 70
2 84 9 9 8 12 -5 12 -9 0 -19 -10 -21 -22 -14 -65 -16 -119 -7 -137 8 -14 8
-28 -1 -48 -6 -15 -11 -63 -10 -107 2 -64 0 -77 -12 -73 -16 6 -30 -19 -16
-28 14 -9 12 -49 -3 -64 -10 -10 -9 -14 6 -22 23 -13 22 -27 -4 -31 l-21 -3
21 -27 c26 -32 12 -46 -14 -15 -18 20 -20 21 -23 4 -6 -30 7 -67 24 -67 9 0
14 -6 11 -14 -3 -7 4 -21 15 -30 12 -10 17 -24 13 -33 -3 -9 -8 -96 -11 -192
-3 -97 -6 -182 -7 -188 0 -9 -21 -13 -71 -13 -50 0 -66 3 -56 10 10 6 11 10 3
10 -10 0 -13 31 -13 123 0 122 0 124 25 135 14 6 25 16 25 22 0 6 -11 16 -25
22 l-25 11 0 704 0 703 30 0 30 0 0 75 c0 75 -5 86 -28 63 -7 -7 -33 -13 -57
-14 l-45 -2 0 52 0 53 30 -5 c17 -2 33 -8 36 -13 3 -5 12 -9 20 -9 11 0 14 16
14 75 0 59 -3 75 -14 75 -8 0 -18 -4 -21 -10 -3 -5 -19 -10 -36 -10 -28 0 -29
1 -29 50 l0 50 40 0 c23 0 52 -7 65 -16 l25 -16 0 75 0 74 -47 5 c-27 3 -79 4
-118 2 -38 -1 -83 -3 -100 -3 l-30 -1 0 -275 0 -275 106 0 c58 0 109 -3 112
-7 4 -3 2 -12 -4 -20 -6 -7 -8 -13 -3 -13 5 0 3 -4 -5 -9 -19 -12 -22 -148 -3
-167 11 -12 11 -16 -2 -30 -20 -20 -20 -33 0 -56 13 -14 14 -21 5 -32 -7 -8
-9 -25 -5 -41 6 -24 5 -26 -20 -19 -27 6 -32 -2 -27 -50 2 -23 37 -59 50 -52
5 3 11 -3 14 -14 4 -14 0 -20 -11 -21 -11 0 -12 -2 -4 -6 8 -3 12 -34 11 -106
-1 -57 -4 -91 -8 -77 -5 17 -9 21 -15 12 -4 -6 -5 -16 -1 -21 3 -5 -1 -16 -9
-23 -9 -10 -15 -51 -18 -138 -2 -69 -1 -114 3 -100 7 24 7 24 9 -5 1 -26 3
-27 10 -10 l9 20 2 -20 c1 -11 5 12 9 50 4 42 7 -32 8 -187 1 -142 -1 -258 -6
-258 -20 0 -81 53 -96 83 -20 44 -21 43 9 101 31 62 34 157 6 237 -41 119 -70
193 -56 145 3 -11 -22 7 -59 42 -36 33 -74 63 -85 67 -24 7 -24 7 -22 90 1 33
-4 67 -9 75 -9 13 -11 12 -9 -5 1 -11 1 -46 0 -78 -1 -54 -2 -57 -23 -52 -13
3 -45 7 -73 8 l-50 2 0 179 c0 98 3 180 8 183 4 2 7 -1 7 -6 0 -6 6 -11 14
-11 20 0 31 -19 18 -32 -16 -16 7 -46 30 -40 25 6 29 98 5 115 -9 5 -7 11 5
21 14 10 16 19 7 48 -10 36 -37 58 -44 35 -2 -6 -7 -39 -11 -72 -4 -33 -9 -51
-12 -40 -2 11 -8 25 -13 31 -4 5 -11 37 -15 70 -3 32 -8 61 -10 63 -5 5 -9
-184 -8 -392 l1 -159 -26 49 c-14 26 -42 82 -60 123 -19 41 -72 154 -119 250
-96 199 -124 268 -117 280 2 4 5 213 5 464 1 380 3 463 16 499 18 50 105 337
128 422 9 33 21 69 26 80 4 11 11 36 15 55 43 234 55 310 55 342 0 63 -25 47
-58 -37 -11 -28 -52 -117 -91 -198 -39 -81 -71 -152 -71 -157 0 -5 -5 -12 -11
-16 -8 -5 -10 80 -6 320 3 192 2 328 -4 332 -5 3 -9 -23 -9 -60 0 -52 -3 -66
-15 -66 -9 0 -15 -10 -15 -26 0 -14 4 -23 10 -19 5 3 7 13 4 23 -5 14 -4 15 5
2 14 -20 14 -123 0 -137 -7 -7 -9 -28 -5 -55 3 -23 9 -110 12 -191 l7 -148
-73 -157 c-40 -86 -106 -228 -147 -315 l-74 -158 26 -144 c14 -80 28 -153 32
-162 16 -48 -18 13 -62 107 -74 161 -136 292 -236 497 -50 104 -99 208 -109
233 -10 25 -46 100 -79 168 -34 68 -61 125 -61 127 0 2 -18 43 -41 92 -93 202
-116 228 -104 117 8 -76 40 -241 79 -404 27 -114 176 -593 226 -730 119 -319
142 -394 128 -408 -7 -7 -6 -16 2 -29 10 -16 11 -16 7 5 -3 12 -1 22 4 22 5 0
9 -2 9 -5 0 -2 9 -28 21 -57 l20 -53 -49 55 c-28 30 -52 53 -54 50 -3 -3 -35
-68 -72 -145 -37 -77 -105 -218 -152 -313 -46 -96 -84 -177 -84 -180 0 -4 -36
-81 -81 -172 l-81 -165 -72 0 c-63 -1 -79 -5 -137 -37 -65 -35 -66 -36 -61
-12 2 13 11 24 19 24 8 0 13 6 10 12 -2 7 -9 12 -15 11 -20 -5 -35 40 -39 121
-3 53 -10 85 -19 92 -8 6 -13 22 -13 35 1 17 3 19 6 6 6 -25 22 -21 33 9 14
36 12 54 -5 54 -19 0 -20 39 0 54 12 9 13 19 4 54 -7 24 -17 42 -25 42 -8 0
-14 7 -14 16 0 10 6 14 15 10 18 -6 38 27 25 40 -5 5 -5 25 -1 46 6 24 5 38
-1 40 -6 2 -12 18 -13 36 -3 31 -1 32 36 32 39 0 47 7 30 26 -4 5 -21 54 -35
109 -15 55 -34 121 -42 146 -11 34 -15 96 -14 235 1 326 1 344 -11 344 -8 0
-10 -17 -5 -55 4 -35 2 -55 -4 -55 -5 0 -10 9 -10 21 0 12 -4 17 -11 13 -6 -3
-9 -20 -7 -36 3 -20 1 -27 -8 -24 -7 3 -17 -1 -22 -7 -14 -17 -25 -137 -13
-137 5 0 11 5 13 12 3 8 7 6 11 -5 3 -9 3 -16 -1 -15 -4 1 -16 -3 -27 -8 -12
-7 -42 -9 -77 -5 -60 7 -74 -1 -62 -34 4 -8 1 -15 -5 -15 -6 0 -11 19 -12 43
0 23 -7 58 -14 77 l-14 35 5 -45 c3 -25 10 -68 16 -96 9 -46 7 -63 -26 -185
-21 -74 -43 -150 -51 -169 -7 -19 -17 -53 -21 -75 -7 -39 -7 -38 -21 40 -8 44
-12 94 -9 112 2 17 1 34 -2 38 -4 3 -5 35 -4 70 3 45 -1 74 -13 100 -10 19
-15 39 -11 42 3 3 6 -1 6 -9 0 -9 7 -21 15 -28 13 -11 15 -6 15 31 3 263 7
360 18 371 9 9 12 -42 12 -232 0 -134 2 -241 5 -239 2 3 5 135 6 294 2 272 1
289 -17 302 -11 8 -18 21 -16 30 2 8 0 13 -5 10 -4 -3 -8 27 -8 66 0 68 -1 71
-25 77 -31 7 -40 48 -14 67 10 7 18 25 19 40 1 16 7 37 14 48 12 20 12 20 6
-1 -4 -14 0 -24 10 -28 11 -4 15 1 15 17 1 20 1 21 11 4 6 -10 9 -28 6 -40 -3
-12 -2 -31 3 -42 6 -16 5 355 -1 375 -1 3 0 10 1 15 1 6 4 139 7 298 l5 287
-109 0 c-71 0 -113 -4 -121 -12 -9 -9 -12 -9 -12 0 0 7 -4 12 -10 12 -16 0
-11 -43 7 -65 10 -13 14 -15 10 -4 -3 9 -1 22 3 29 12 20 18 -13 28 -160 6
-83 10 -104 11 -62 1 72 20 85 22 15 1 -28 4 -37 6 -23 3 14 9 29 14 35 6 6 7
-4 3 -25 -4 -19 -11 -37 -15 -40 -12 -8 -14 -144 -7 -545 0 -16 0 -39 -2 -50
-1 -11 0 -36 3 -55 3 -19 2 -39 -1 -45 -6 -10 -14 -130 -13 -210 0 -22 -3 -34
-6 -27 -4 10 -8 10 -19 1 -8 -6 -14 -8 -14 -4 0 5 -8 0 -19 -9 -12 -11 -18
-28 -16 -47 3 -39 11 -46 19 -14 4 14 10 25 14 25 10 0 13 -193 2 -200 -5 -3
0 -17 10 -30 l20 -25 0 53 c0 28 4 52 10 52 6 0 8 -23 5 -57 -2 -32 -4 -84 -5
-116 l0 -58 -130 4 c-148 6 -171 14 -175 65 -2 25 1 32 14 30 13 -3 15 5 13
49 -3 41 0 54 12 59 9 3 16 10 16 16 0 5 -4 7 -9 4 -10 -7 -21 16 -21 44 0 10
-7 30 -14 46 -8 15 -12 32 -9 37 3 5 7 32 10 61 3 37 1 47 -6 36 -9 -12 -11
-11 -11 7 0 12 5 25 11 29 6 3 8 16 5 27 -8 30 5 108 16 100 19 -11 25 18 22
106 -3 81 -1 89 16 94 25 7 32 -16 28 -97 -1 -36 1 -68 5 -73 5 -4 7 65 6 153
-1 100 2 168 9 180 9 15 11 7 10 -41 0 -33 0 -112 1 -175 3 -172 2 -202 -8
-196 -16 10 -27 -19 -20 -54 6 -35 6 -35 8 10 1 34 4 41 13 32 8 -8 12 -46 11
-108 0 -53 3 -90 7 -83 5 8 10 196 13 419 3 250 11 472 21 580 8 96 18 203 21
238 l5 62 -200 0 -200 0 0 -1980z m3586 1872 c-11 -10 -14 3 -8 33 l7 30 3
-28 c2 -16 1 -31 -2 -35z m-3066 -24 c0 -5 -4 -8 -10 -8 -5 0 -10 10 -10 23 0
18 2 19 10 7 5 -8 10 -18 10 -22z m2925 22 c3 -5 1 -10 -4 -10 -6 0 -11 5 -11
10 0 6 2 10 4 10 3 0 8 -4 11 -10z m65 1 c0 -6 -4 -13 -10 -16 -5 -3 -10 1
-10 9 0 9 5 16 10 16 6 0 10 -4 10 -9z m-10 -63 c0 -16 -3 -19 -11 -11 -6 6
-8 16 -5 22 11 17 16 13 16 -11z m-2980 2 c0 -5 -2 -10 -4 -10 -3 0 -8 5 -11
10 -3 6 -1 10 4 10 6 0 11 -4 11 -10z m3187 -37 c-3 -10 -5 -2 -5 17 0 19 2
27 5 18 2 -10 2 -26 0 -35z m43 -53 c0 -5 -5 -10 -11 -10 -5 0 -7 5 -4 10 3 6
8 10 11 10 2 0 4 -4 4 -10z m-3456 -36 c4 -10 1 -14 -6 -12 -15 5 -23 28 -10
28 5 0 13 -7 16 -16z m36 -5 c0 -11 -4 -18 -10 -14 -5 3 -7 12 -3 20 7 21 13
19 13 -6z m299 -65 c-6 -8 -15 -14 -20 -14 -14 0 -11 28 4 33 20 7 29 -4 16
-19z m3084 6 c3 -12 0 -20 -8 -20 -8 0 -11 8 -8 20 3 11 7 20 8 20 1 0 5 -9 8
-20z m-3443 0 c0 -5 -2 -10 -4 -10 -3 0 -8 5 -11 10 -3 6 -1 10 4 10 6 0 11
-4 11 -10z m51 -27 c-9 -15 -10 -14 -7 7 6 35 7 37 12 23 3 -7 1 -20 -5 -30z
m-216 -45 c4 -23 3 -38 -3 -38 -9 0 -22 45 -22 78 0 28 18 -1 25 -40z m2242
-15 c-3 -10 -5 -2 -5 17 0 19 2 27 5 18 2 -10 2 -26 0 -35z m-2023 -52 c-5
-54 -3 -80 5 -85 6 -4 11 -14 11 -22 0 -8 -4 -13 -9 -10 -5 4 -7 -3 -4 -14 4
-14 0 -20 -10 -20 -12 0 -16 12 -15 53 1 89 0 91 -17 77 -13 -11 -15 -8 -15
19 0 19 -4 30 -10 26 -5 -3 -10 0 -10 8 0 16 60 57 73 50 4 -2 4 -39 1 -82z
m323 -28 c-3 -10 -5 -4 -5 12 0 17 2 24 5 18 2 -7 2 -21 0 -30z m873 -28 c0
-5 -5 -3 -10 5 -5 8 -10 20 -10 25 0 6 5 3 10 -5 5 -8 10 -19 10 -25z m34 -67
c25 -55 76 -165 169 -358 30 -63 68 -144 84 -180 192 -416 177 -377 163 -421
-7 -22 -17 -36 -20 -32 -9 10 -90 197 -182 418 -39 94 -92 222 -119 285 -43
105 -129 328 -129 336 0 17 15 -5 34 -48z m-1264 32 c0 -5 -4 -10 -10 -10 -5
0 -10 5 -10 10 0 6 5 10 10 10 6 0 10 -4 10 -10z m277 -82 c-3 -7 -5 -2 -5 12
0 14 2 19 5 13 2 -7 2 -19 0 -25z m35 -20 c-6 -6 -7 0 -4 19 5 21 7 23 10 9 2
-10 0 -22 -6 -28z m-348 -3 c3 -8 1 -15 -4 -15 -6 0 -10 7 -10 15 0 8 2 15 4
15 2 0 6 -7 10 -15z m316 -32 c0 -22 -2 -25 -10 -13 -13 20 -13 40 0 40 6 0
10 -12 10 -27z m-474 -51 c-12 -11 -16 6 -9 39 l8 34 3 -33 c2 -19 1 -36 -2
-40z m529 -21 c-9 -39 -21 -68 -26 -65 -12 7 -11 61 1 69 6 4 8 10 5 15 -3 4
2 10 10 14 8 3 15 15 15 27 0 12 3 20 6 16 4 -3 -1 -38 -11 -76z m3055 34 c0
-19 -4 -35 -10 -35 -5 0 -10 16 -10 35 0 19 5 35 10 35 6 0 10 -16 10 -35z
m-3613 -17 c-3 -7 -5 -2 -5 12 0 14 2 19 5 13 2 -7 2 -19 0 -25z m194 -5 c-9
-16 -10 -14 -11 12 0 21 3 26 11 18 8 -8 8 -16 0 -30z m-135 -41 c-12 -11 -17
7 -9 34 l8 29 3 -28 c2 -16 1 -31 -2 -35z m104 33 c0 -8 -2 -15 -4 -15 -2 0
-6 7 -10 15 -3 8 -1 15 4 15 6 0 10 -7 10 -15z m57 -27 c-3 -8 -6 -5 -6 6 -1
11 2 17 5 13 3 -3 4 -12 1 -19z m-220 -20 c-3 -7 -5 -2 -5 12 0 14 2 19 5 13
2 -7 2 -19 0 -25z m490 10 c-3 -8 -6 -5 -6 6 -1 11 2 17 5 13 3 -3 4 -12 1
-19z m-336 -31 c-10 -9 -11 -8 -5 6 3 10 9 15 12 12 3 -3 0 -11 -7 -18z m3459
-47 c0 -5 -2 -10 -4 -10 -3 0 -8 5 -11 10 -3 6 -1 10 4 10 6 0 11 -4 11 -10z
m-3560 -20 c0 -5 -5 -10 -11 -10 -5 0 -7 5 -4 10 3 6 8 10 11 10 2 0 4 -4 4
-10z m-40 -27 c0 -19 -3 -24 -10 -17 -6 6 -8 18 -4 27 9 24 14 21 14 -10z
m147 -5 c-3 -7 -5 -2 -5 12 0 14 2 19 5 13 2 -7 2 -19 0 -25z m3450 -35 c-3
-10 -5 -4 -5 12 0 17 2 24 5 18 2 -7 2 -21 0 -30z m-3533 11 c9 -24 7 -27 -9
-10 -17 17 -19 26 -6 26 5 0 12 -7 15 -16z m86 -24 c0 -5 -4 -10 -10 -10 -5 0
-10 5 -10 10 0 6 5 10 10 10 6 0 10 -4 10 -10z m-93 -102 c-2 -13 -4 -3 -4 22
0 25 2 35 4 23 2 -13 2 -33 0 -45z m473 -54 c0 -8 -4 -12 -10 -9 -5 3 -10 10
-10 16 0 5 5 9 10 9 6 0 10 -7 10 -16z m1738 -609 c-1 -234 -5 -422 -8 -418
-4 5 -44 86 -89 182 l-82 173 25 67 c22 61 106 294 137 384 7 20 14 37 16 37
2 0 2 -191 1 -425z m-1831 393 c-3 -8 -6 -5 -6 6 -1 11 2 17 5 13 3 -3 4 -12
1 -19z m-387 -49 c0 -22 -5 -49 -10 -60 -8 -15 -7 -21 4 -25 14 -5 14 -8 0
-21 -9 -9 -14 -30 -12 -54 2 -42 -4 -55 -22 -44 -6 4 -10 25 -8 48 2 30 -1 41
-9 40 -17 -4 -17 29 -1 45 10 10 10 15 -1 21 -12 8 -12 14 -1 40 7 17 19 31
26 31 8 0 14 7 14 16 0 8 5 12 10 9 6 -3 10 -24 10 -46z m87 -91 c-3 -8 -6 -5
-6 6 -1 11 2 17 5 13 3 -3 4 -12 1 -19z m-160 -80 c-3 -7 -5 -2 -5 12 0 14 2
19 5 13 2 -7 2 -19 0 -25z m0 -80 c-3 -8 -6 -5 -6 6 -1 11 2 17 5 13 3 -3 4
-12 1 -19z m172 6 c1 29 31 -1 31 -31 0 -21 -3 -23 -14 -14 -9 7 -17 8 -20 2
-3 -5 0 -12 6 -14 8 -3 6 -6 -4 -6 -15 -1 -18 7 -17 42 0 32 2 37 9 22 8 -19
9 -19 9 -1z m765 -69 l5 -50 -14 40 c-16 46 -20 100 -6 75 5 -8 12 -37 15 -65z
m-889 23 c-1 -13 2 -31 7 -41 5 -10 11 -39 14 -64 3 -38 1 -44 -12 -39 -14 5
-16 -3 -11 -71 3 -43 11 -116 17 -163 8 -59 8 -86 1 -88 -6 -2 -11 -19 -11
-37 0 -35 -16 -56 -25 -33 -3 8 -8 29 -10 48 -3 19 -7 52 -11 73 -5 30 -3 37
10 37 9 0 16 5 16 10 0 6 -6 10 -13 10 -9 0 -14 16 -15 51 -1 45 1 49 15 37
15 -12 16 -3 10 98 -7 110 -1 207 13 199 4 -2 6 -14 5 -27z m1938 -39 c16 -26
1 -49 -32 -49 -38 0 -54 36 -25 57 23 16 43 13 57 -8z m-1814 -19 c4 0 12 5
19 12 9 9 12 -36 12 -204 0 -136 -4 -219 -10 -223 -21 -13 2 -24 40 -19 l40 5
0 -66 c0 -50 -3 -65 -14 -65 -8 0 -17 8 -19 18 -3 9 -5 -1 -6 -23 0 -22 3 -35
7 -28 21 33 27 -17 28 -234 1 -159 -1 -231 -9 -226 -6 4 -8 -3 -4 -18 11 -47
17 -165 8 -144 -7 15 -10 6 -12 -40 -2 -33 -2 -77 -1 -97 1 -20 -3 -40 -9 -43
-9 -6 -9 123 2 245 6 65 -1 141 -11 135 -6 -4 -10 15 -10 50 0 59 -14 100 -31
89 -5 -3 -7 -14 -4 -25 4 -11 2 -19 -4 -19 -6 0 -11 -8 -11 -17 -1 -41 -20 13
-21 57 0 25 -3 39 -6 33 -2 -7 -9 -13 -15 -13 -6 0 -7 7 -3 18 4 9 7 27 6 40
0 13 3 20 9 17 6 -4 10 7 10 24 0 17 5 31 11 31 6 0 8 8 4 20 -3 10 -6 52 -7
92 -1 111 -1 110 23 103 16 -5 20 -3 17 6 -3 8 -13 13 -22 13 -9 -1 -16 4 -16
12 0 8 7 14 16 14 9 0 14 7 12 16 -2 8 -7 15 -13 15 -14 0 -27 41 -17 51 5 5
8 28 7 51 -3 41 -2 41 5 7 4 -20 8 -26 9 -15 8 81 8 126 1 188 -6 62 -8 66
-10 27 l-3 -45 -11 58 c-6 32 -14 55 -19 51 -4 -4 -7 0 -7 9 0 10 5 17 10 17
6 0 11 17 11 38 1 20 3 29 6 20 2 -10 8 -18 12 -18z m-172 -2 c-3 -8 -6 -5 -6
6 -1 11 2 17 5 13 3 -3 4 -12 1 -19z m411 -44 c2 -31 -1 -43 -13 -48 -27 -10
-35 2 -35 50 0 41 2 45 23 42 18 -2 23 -10 25 -44z m3050 38 c19 -12 27 -79
12 -97 -27 -32 -40 -17 -40 45 0 60 4 67 28 52z m158 -222 c-2 -39 -6 -73 -9
-76 -3 -3 -12 17 -22 45 -16 49 -16 50 6 75 13 14 24 26 25 26 2 0 2 -32 0
-70z m-2793 45 c4 -8 2 -17 -3 -20 -6 -4 -10 3 -10 14 0 25 6 27 13 6z m-418
-65 c0 -44 -3 -55 -17 -58 -16 -3 -18 5 -18 58 0 53 2 61 18 58 14 -3 17 -14
17 -58z m465 -101 c6 -11 12 -33 12 -50 1 -22 6 -29 22 -29 12 0 28 -5 36 -10
12 -8 8 -10 -15 -11 -49 -3 -53 -4 -61 -12 -4 -4 0 -7 9 -7 9 0 17 -7 17 -15
0 -8 4 -15 9 -15 5 0 8 7 7 16 0 9 5 19 12 21 17 7 15 -17 -5 -39 -9 -11 -11
-18 -5 -18 7 0 12 -13 12 -30 0 -29 -13 -40 -25 -20 -8 13 -45 13 -45 -1 0
-13 -42 -1 -52 15 -4 6 -8 -3 -8 -19 0 -24 6 -33 30 -43 29 -13 42 -34 18 -29
-7 1 -14 -8 -16 -20 -3 -17 0 -21 12 -17 11 4 16 1 16 -10 0 -9 -7 -19 -16
-23 -9 -3 -13 -12 -9 -21 3 -8 1 -18 -5 -22 -13 -8 -32 -195 -24 -243 5 -29 9
-35 21 -28 12 6 16 28 17 93 2 67 6 91 23 114 21 29 36 104 21 104 -11 0 -10
22 2 40 9 13 12 13 20 -2 6 -9 17 -15 25 -12 17 7 20 -7 6 -21 -17 -17 -30
-95 -21 -126 5 -16 10 -60 11 -98 2 -38 7 -68 10 -65 4 2 10 0 14 -5 3 -5 -3
-14 -12 -20 -17 -9 -17 -11 2 -25 20 -15 20 -15 -2 -16 -21 0 -22 -4 -21 -63
0 -35 -4 -72 -10 -83 -11 -19 -11 -19 -12 1 -1 20 -1 20 -15 1 -17 -23 -18
-22 -38 27 -9 20 -21 37 -27 37 -7 0 -9 8 -5 19 3 11 1 22 -5 26 -6 4 -10 -11
-9 -42 0 -33 3 -42 8 -29 7 19 8 19 13 -1 4 -14 0 -24 -8 -27 -15 -6 -20 -36
-5 -36 5 0 9 -87 9 -192 0 -106 -3 -184 -7 -173 l-8 20 -6 -20 c-7 -23 -4 -51
6 -61 4 -4 7 0 7 9 0 9 4 18 9 21 16 10 -2 -38 -18 -51 -14 -10 -14 -13 2 -30
9 -11 17 -26 16 -34 0 -8 -6 -3 -12 11 -10 20 -13 -20 -15 -209 l-2 -233 -31
6 c-18 3 -47 6 -66 6 -20 0 -32 4 -28 10 3 6 1 10 -4 10 -6 0 -11 -4 -11 -10
0 -5 -4 -10 -10 -10 -5 0 -9 17 -9 38 1 20 3 29 6 19 3 -10 10 -16 16 -14 15
5 19 57 6 73 -5 7 -7 24 -3 38 4 16 2 26 -4 26 -6 0 -13 -10 -15 -23 -3 -12
-5 183 -4 433 0 250 4 464 8 475 5 12 8 14 8 6 1 -11 4 -12 12 -4 8 8 8 16 0
30 -8 14 -11 15 -12 3 -4 -30 -17 97 -18 169 -2 112 -12 79 -13 -42 0 -58 -5
-111 -9 -118 -9 -14 -10 174 -1 281 3 40 7 50 13 35 4 -11 8 53 8 148 l1 167
65 0 c62 0 65 1 65 24 0 14 4 36 10 50 8 23 15 26 54 26 36 0 48 -4 56 -21z
m1171 -72 c69 -41 59 -27 219 -307 25 -44 59 -103 76 -132 17 -29 65 -113 108
-187 l78 -135 -24 -49 c-18 -40 -23 -67 -23 -131 1 -96 27 -170 93 -257 l41
-55 1 -249 1 -250 -73 0 -73 0 -6 80 -5 80 -2 -82 -2 -83 -57 0 c-32 0 -67 3
-78 6 -20 5 -20 13 -18 684 2 432 -1 681 -7 685 -6 4 -10 -9 -10 -29 0 -20 -4
-36 -10 -36 -13 0 -13 -27 0 -32 7 -2 10 -126 10 -368 0 -201 -1 -485 -1 -631
0 -266 0 -267 -22 -273 -28 -7 -91 -8 -110 0 -8 3 -12 14 -10 28 3 13 -2 28
-11 35 -14 12 -16 9 -16 -28 l0 -42 -66 3 -65 3 -4 70 c-13 228 -14 335 -5
335 14 0 12 38 -2 43 -10 3 -10 11 -3 32 6 18 7 91 2 199 -4 94 -5 230 -2 303
4 85 2 134 -5 138 -6 4 -10 -9 -10 -34 0 -31 -3 -39 -14 -35 -8 3 -19 -3 -26
-15 -9 -17 -8 -21 6 -21 13 0 15 -7 9 -37 -6 -33 -5 -35 9 -24 14 12 16 10 16
-17 0 -39 -11 -92 -19 -92 -3 0 -5 21 -4 48 1 26 -1 37 -3 24 -3 -12 -9 -20
-13 -17 -10 6 -8 -82 2 -91 4 -4 7 -2 7 5 0 7 4 10 10 6 5 -3 7 -12 4 -19 -3
-8 0 -17 6 -21 8 -5 6 -11 -7 -20 -14 -11 -15 -15 -4 -29 7 -9 10 -23 7 -33
-12 -31 -16 -112 -6 -118 6 -4 3 -16 -7 -32 -11 -16 -13 -28 -7 -30 6 -2 8
-18 6 -35 -4 -24 -2 -29 9 -23 11 6 12 5 2 -6 -7 -7 -13 -20 -13 -29 0 -13 1
-13 10 0 7 11 10 7 10 -17 0 -17 -7 -38 -15 -47 -16 -16 -21 -66 -6 -66 5 0
12 10 14 22 3 13 2 -6 0 -42 -6 -73 -13 -93 -13 -35 0 58 -7 38 -14 -40 -5
-63 -4 -67 8 -41 11 24 14 26 20 11 7 -20 -11 -85 -24 -85 -5 0 -11 6 -13 13
-3 6 -6 2 -6 -9 -1 -14 7 -24 20 -27 16 -4 20 -12 17 -34 -2 -15 -6 -27 -10
-25 -5 1 -25 2 -46 2 l-38 0 -1 63 c-1 34 -4 103 -6 152 -2 50 0 110 3 135 7
42 7 41 8 -22 1 -37 7 -70 12 -73 6 -3 11 2 11 12 1 10 3 32 5 48 2 17 -3 64
-11 105 -12 66 -13 70 -14 31 -1 -59 -12 -46 -21 26 l-7 58 -2 -78 c-1 -55 -5
-83 -16 -93 -12 -13 -15 -46 -14 -172 0 -104 3 -149 9 -134 14 33 20 27 20
-21 l0 -43 -75 -3 c-112 -4 -110 -5 -108 89 0 44 -2 82 -6 84 -4 3 -11 -20
-17 -50 -5 -30 -6 -54 -2 -54 4 0 3 -11 -2 -25 -7 -18 -6 -25 3 -26 6 0 -1 -5
-18 -10 -16 -5 -51 -7 -77 -3 l-46 6 0 291 c0 356 0 362 -9 353 -4 -4 -8 -102
-8 -219 0 -117 -2 -262 -3 -322 l-2 -111 -67 1 -68 0 0 259 0 260 31 40 c17
23 37 52 45 66 l13 25 8 -30 c7 -29 7 -28 4 5 -2 19 3 64 11 100 18 80 12 162
-18 223 l-22 45 34 58 34 59 6 -60 6 -60 2 55 c2 30 3 63 2 72 -1 9 9 35 23
57 15 22 26 43 26 46 0 13 104 175 112 175 4 0 8 10 9 23 0 12 35 81 77 152
75 126 79 131 155 182 87 57 80 57 178 0z m-1589 -57 c-2 -27 -8 -50 -13 -50
-5 0 -9 -7 -9 -15 0 -8 4 -15 8 -15 7 0 7 -123 1 -595 -1 -16 -1 -75 -1 -130
1 -55 -1 -235 -4 -400 -2 -165 -4 -342 -4 -392 0 -82 -2 -93 -18 -93 -15 0
-15 2 -2 10 14 9 7 15 -15 10 -5 -1 -4 4 3 11 15 16 16 33 1 23 -8 -4 -9 1 -3
17 8 27 9 34 5 104 -2 28 -5 42 -8 33 -10 -39 -21 -14 -27 65 -8 115 -12 135
-29 152 -13 13 -17 10 -31 -23 -14 -34 -15 4 -11 478 2 283 7 546 10 584 5 48
4 66 -4 62 -8 -5 -11 26 -11 103 l0 111 83 0 82 0 -3 -50z m158 -62 c0 -61 -2
-109 -5 -106 -11 10 -15 218 -5 218 6 0 10 -43 10 -112z m2998 44 c2 -38 -1
-61 -6 -58 -9 5 -26 -29 -23 -47 1 -5 2 -32 3 -60 1 -29 3 -44 6 -34 2 9 8 17
13 17 5 0 9 -108 9 -262 -1 -233 -2 -260 -15 -238 -14 25 -14 25 -16 -15 -5
-114 -11 -358 -10 -414 1 -36 -4 -68 -9 -71 -25 -15 -32 -127 -7 -117 15 6 22
-39 7 -48 -6 -3 -10 3 -10 15 0 13 -4 18 -11 14 -6 -3 -8 -17 -5 -30 7 -25
-15 -70 -27 -57 -12 12 -7 23 10 23 15 0 15 2 -2 14 -17 12 -18 18 -7 66 16
68 16 88 0 72 -7 -7 -15 -12 -20 -12 -8 0 -1 293 8 321 2 9 -2 19 -11 23 -11
4 -14 16 -12 44 2 22 7 44 11 50 10 16 -1 131 -14 147 -12 14 -3 92 11 101 15
9 10 54 -6 54 -8 0 -15 7 -15 15 0 9 7 18 15 21 17 7 21 44 4 44 -7 0 -8 7 -4
18 16 39 35 156 29 171 -4 9 -9 27 -10 41 -2 14 -5 39 -7 55 -3 17 -8 70 -12
118 l-6 88 68 -3 68 -3 3 -63z m-3041 -4 c-3 -7 -5 -2 -5 12 0 14 2 19 5 13 2
-7 2 -19 0 -25z m400 -40 c-3 -7 -5 -2 -5 12 0 14 2 19 5 13 2 -7 2 -19 0 -25z
m-910 -190 c-3 -7 -5 -2 -5 12 0 14 2 19 5 13 2 -7 2 -19 0 -25z m910 0 c-3
-8 -6 -5 -6 6 -1 11 2 17 5 13 3 -3 4 -12 1 -19z m-97 -8 c0 -5 -2 -10 -4 -10
-3 0 -8 5 -11 10 -3 6 -1 10 4 10 6 0 11 -4 11 -10z m-372 -109 c-15 -5 -18 3
-11 29 l7 25 6 -25 c3 -14 2 -27 -2 -29z m469 17 c-3 -7 -5 -2 -5 12 0 14 2
19 5 13 2 -7 2 -19 0 -25z m2683 -12 c0 -8 -4 -18 -10 -21 -5 -3 -10 3 -10 14
0 12 5 21 10 21 6 0 10 -6 10 -14z m-3083 -18 c-3 -8 -6 -5 -6 6 -1 11 2 17 5
13 3 -3 4 -12 1 -19z m2548 -8 c3 -5 1 -10 -4 -10 -6 0 -11 5 -11 10 0 6 2 10
4 10 3 0 8 -4 11 -10z m697 -65 c-2 -14 -6 -25 -8 -25 -2 0 -4 11 -4 25 0 14
4 25 9 25 4 0 6 -11 3 -25z m-3335 -7 c-3 -8 -6 -5 -6 6 -1 11 2 17 5 13 3 -3
4 -12 1 -19z m-277 -18 c0 -11 -4 -20 -10 -20 -5 0 -10 9 -10 20 0 11 5 20 10
20 6 0 10 -9 10 -20z m3610 -77 c-2 -92 -2 -95 11 -88 6 4 5 -2 -3 -14 -12
-20 -13 -20 -20 -1 -4 10 -5 31 -4 47 2 15 4 49 5 76 0 26 4 47 7 47 3 0 5
-30 4 -67z m65 46 c-4 -5 -3 -9 2 -9 4 0 9 -37 9 -83 1 -45 -1 -63 -3 -39 -2
23 -8 42 -14 42 -5 0 -9 25 -9 56 0 35 4 53 10 49 6 -4 8 -11 5 -16z m-3795
-40 c0 -6 -4 -7 -10 -4 -5 3 -10 11 -10 16 0 6 5 7 10 4 6 -3 10 -11 10 -16z
m137 -27 c15 12 16 6 9 -56 -4 -38 -12 -78 -18 -89 -6 -12 -13 -37 -15 -56 -3
-20 -10 -42 -17 -50 -18 -23 -28 117 -10 146 10 17 11 29 3 50 -13 34 8 86 24
58 7 -13 11 -14 24 -3z m3629 -27 c-4 -24 -16 -30 -16 -7 0 12 4 22 9 22 5 0
8 -7 7 -15z m-76 -41 c0 -8 -4 -12 -10 -9 -5 3 -10 10 -10 16 0 5 5 9 10 9 6
0 10 -7 10 -16z m-2763 -40 c-3 -3 -12 -4 -19 -1 -8 3 -5 6 6 6 11 1 17 -2 13
-5z m-11 -25 c3 -6 -6 -23 -21 -38 l-27 -26 17 27 c9 15 14 32 10 38 -3 5 -2
10 4 10 5 0 13 -5 17 -11z m262 -21 c9 -9 9 -15 -1 -26 -10 -13 -9 -14 10 -4
19 10 25 9 43 -10 73 -79 40 -239 -74 -353 -50 -50 -105 -75 -166 -75 -29 0
-82 29 -75 41 4 5 13 3 21 -6 9 -8 21 -15 27 -14 9 0 8 2 0 6 -7 2 -13 13 -13
24 0 10 -5 18 -11 17 -6 -2 -13 2 -16 9 -3 7 3 9 16 6 13 -3 21 -14 21 -26 0
-11 3 -18 6 -15 6 7 6 88 -1 138 -8 54 -8 54 0 73 4 10 3 17 -4 17 -6 0 -11
12 -12 28 0 15 -3 21 -6 12 -9 -25 -25 -40 -35 -34 -5 4 -3 13 5 22 8 10 18
28 22 41 l7 24 13 -23 13 -23 0 27 c0 41 -15 40 -43 -4 -30 -47 -38 -51 -24
-11 6 16 36 53 67 83 52 48 57 51 60 31 2 -13 8 -23 14 -23 6 0 8 10 4 24 -4
18 -1 26 11 29 37 10 109 7 121 -5z m1499 6 c15 -4 23 -15 26 -38 4 -28 5 -29
12 -8 4 12 11 22 15 22 17 0 99 -90 121 -131 17 -32 23 -60 22 -101 -1 -34 3
-56 8 -52 10 6 5 -24 -15 -86 -14 -42 -67 -80 -112 -80 l-34 0 -1 95 c-2 111
-2 111 -11 121 -5 4 -8 -22 -9 -57 0 -62 -1 -63 -12 -31 -10 30 -32 46 -32 25
0 -5 -3 -13 -7 -18 -4 -6 -3 -17 3 -25 12 -20 11 -60 -1 -60 -5 0 -10 -5 -10
-11 0 -5 3 -8 8 -5 4 2 18 -2 32 -10 14 -7 19 -13 12 -14 -24 0 -77 28 -110
60 l-33 32 1 183 c2 203 -3 192 70 194 19 0 45 -2 57 -5z m-2190 -46 c-3 -8
-6 -5 -6 6 -1 11 2 17 5 13 3 -3 4 -12 1 -19z m300 -25 c-3 -10 -5 -4 -5 12 0
17 2 24 5 18 2 -7 2 -21 0 -30z m1744 -25 c1 -35 3 -88 5 -118 1 -30 -1 -71
-5 -90 l-8 -35 -24 50 c-31 66 -33 174 -4 223 11 17 23 32 27 32 4 0 9 -28 9
-62z m1156 0 c-3 -7 -5 -2 -5 12 0 14 2 19 5 13 2 -7 2 -19 0 -25z m-3242 -8
c3 -5 1 -10 -4 -10 -6 0 -11 5 -11 10 0 6 2 10 4 10 3 0 8 -4 11 -10z m348
-20 c-7 -28 -13 -25 -13 6 0 14 4 23 9 20 5 -3 7 -15 4 -26z m2737 9 c0 -11
-4 -18 -10 -14 -5 3 -7 12 -3 20 7 21 13 19 13 -6z m-3443 -56 c-3 -10 -5 -4
-5 12 0 17 2 24 5 18 2 -7 2 -21 0 -30z m713 -14 c0 -5 -4 -9 -10 -9 -5 0 -10
7 -10 16 0 8 5 12 10 9 6 -3 10 -10 10 -16z m-690 -51 c0 -49 -5 -47 -13 5 -3
20 -2 37 4 37 5 0 9 -19 9 -42z m3417 20 c-3 -8 -6 -5 -6 6 -1 11 2 17 5 13 3
-3 4 -12 1 -19z m-3366 -45 c-9 -15 -10 -12 -10 17 0 29 1 32 10 18 7 -12 7
-24 0 -35z m616 15 c-3 -7 -5 -2 -5 12 0 14 2 19 5 13 2 -7 2 -19 0 -25z
m2983 12 c0 -5 -2 -10 -4 -10 -3 0 -8 5 -11 10 -3 6 -1 10 4 10 6 0 11 -4 11
-10z m30 -56 c0 -20 5 -34 13 -34 9 0 9 -2 0 -8 -6 -4 -10 -21 -8 -37 10 -83
17 -319 9 -312 -5 5 -12 68 -15 140 -4 73 -10 170 -14 216 -6 63 -5 82 3 77 7
-4 12 -23 12 -42z m-3670 -10 c0 -8 -4 -12 -10 -9 -5 3 -10 10 -10 16 0 5 5 9
10 9 6 0 10 -7 10 -16z m44 -16 c-3 -4 0 -16 5 -26 7 -14 6 -19 -3 -19 -7 0
-13 16 -14 41 -2 29 0 37 7 26 5 -8 8 -18 5 -22z m693 -10 c-3 -7 -5 -2 -5 12
0 14 2 19 5 13 2 -7 2 -19 0 -25z m-90 -15 c-3 -10 -5 -4 -5 12 0 17 2 24 5
18 2 -7 2 -21 0 -30z m193 6 c0 -3 -10 -10 -22 -16 -21 -9 -23 -7 -25 17 -2
26 0 27 22 16 14 -6 25 -14 25 -17z m-470 -41 c0 -62 -5 -60 -13 5 -4 28 -3
47 3 47 6 0 10 -23 10 -52z m27 -100 c-2 -24 -4 -5 -4 42 0 47 2 66 4 43 2
-24 2 -62 0 -85z m260 75 c-3 -10 -5 -4 -5 12 0 17 2 24 5 18 2 -7 2 -21 0
-30z m183 27 c0 -5 -2 -10 -4 -10 -3 0 -8 5 -11 10 -3 6 -1 10 4 10 6 0 11 -4
11 -10z m-783 -32 c-3 -8 -6 -5 -6 6 -1 11 2 17 5 13 3 -3 4 -12 1 -19z m2520
-10 c-3 -8 -6 -5 -6 6 -1 11 2 17 5 13 3 -3 4 -12 1 -19z m-1792 2 c3 -5 1
-10 -4 -10 -6 0 -11 5 -11 10 0 6 2 10 4 10 3 0 8 -4 11 -10z m-56 -104 c16
-19 16 -19 -11 0 -15 10 -28 25 -28 32 0 6 -4 12 -10 12 -5 0 -10 10 -10 23 0
19 3 17 21 -13 12 -19 29 -44 38 -54z m355 12 c-2 -18 -3 -112 -3 -208 1 -231
0 -243 -12 -253 -2 -3 -35 -1 -74 3 -64 7 -66 7 -20 9 l50 1 -2 51 c-1 56 -11
75 -20 41 -3 -12 -9 -19 -14 -16 -5 3 -9 -2 -9 -10 0 -9 5 -16 11 -16 8 0 8
-4 -1 -15 -7 -8 -22 -13 -34 -11 -28 4 -36 60 -33 235 l2 133 40 16 c22 8 58
28 79 44 22 15 41 28 41 28 1 0 1 -15 -1 -32z m1449 -37 l46 -20 -2 -203 -2
-203 -64 0 c-56 0 -64 2 -67 20 -3 16 -5 286 -3 345 0 8 -3 39 -7 69 l-7 55
30 -22 c17 -12 51 -31 76 -41z m-1852 -45 c-6 -48 -19 -7 -13 44 5 42 6 43 12
15 3 -16 4 -43 1 -59z m2501 60 c14 -20 8 -30 -6 -10 -14 18 -15 18 -24 -6 -9
-22 -11 -23 -17 -7 -16 39 23 58 47 23z m215 -53 c-3 -10 -5 -4 -5 12 0 17 2
24 5 18 2 -7 2 -21 0 -30z m-3000 -35 c-2 -13 -4 -3 -4 22 0 25 2 35 4 23 2
-13 2 -33 0 -45z m333 52 c0 -5 -2 -10 -4 -10 -3 0 -8 5 -11 10 -3 6 -1 10 4
10 6 0 11 -4 11 -10z m138 0 l44 0 -5 -110 c-3 -66 -10 -117 -18 -126 -9 -12
-9 -20 1 -39 7 -14 10 -28 7 -32 -4 -3 -7 1 -7 9 0 9 -9 18 -20 21 -11 3 -20
9 -19 14 1 4 -1 20 -5 36 -8 27 -15 31 -47 28 -14 -2 -16 7 -12 56 6 64 7 68
21 59 7 -4 6 -17 -1 -36 -8 -22 -9 -35 -1 -48 18 -28 29 -15 32 40 4 70 -5
118 -23 118 -8 0 -14 -5 -12 -11 1 -6 -4 -14 -10 -16 -9 -3 -12 4 -11 22 2 21
6 25 23 21 11 -3 40 -6 63 -6z m1861 -19 c17 -24 21 -44 21 -111 0 -79 -1 -83
-31 -111 -17 -16 -28 -29 -24 -29 3 0 -1 -10 -9 -22 -9 -12 -16 -35 -16 -51 0
-25 2 -28 15 -17 9 7 18 10 22 6 3 -3 1 -6 -5 -6 -7 0 -12 -4 -12 -10 0 -19
17 -10 28 16 16 33 30 23 27 -18 -2 -32 -4 -32 -56 -36 -103 -6 -96 -21 -95
205 l1 198 40 6 c69 10 73 10 94 -20z m-2116 -16 c-7 -21 -13 -19 -13 6 0 11
4 18 10 14 5 -3 7 -12 3 -20z m-246 -47 c-2 -13 -4 -5 -4 17 -1 22 1 32 4 23
2 -10 2 -28 0 -40z m3030 10 c-3 -8 -6 -5 -6 6 -1 11 2 17 5 13 3 -3 4 -12 1
-19z m-517 -51 l30 -2 0 -137 0 -138 -58 0 c-40 0 -59 4 -60 13 0 6 -3 30 -6
52 -3 22 -3 32 0 23 8 -28 22 -21 33 15 8 29 9 26 10 -30 1 -35 5 -63 10 -63
5 0 9 6 8 13 -1 43 4 56 20 50 13 -5 15 -2 11 15 -4 12 -2 25 3 28 11 6 12 24
2 23 -35 -6 -45 16 -13 26 14 4 20 15 20 36 0 18 -4 28 -10 24 -5 -3 -10 -1
-10 4 0 6 -8 11 -17 11 -15 0 -16 -2 -3 -10 13 -9 13 -10 0 -10 -13 0 -13 -1
0 -10 11 -7 12 -12 4 -17 -7 -5 -13 -17 -15 -27 -5 -22 -39 -31 -39 -11 0 8
-6 18 -14 22 -9 5 -15 34 -18 85 l-5 77 44 -30 c23 -16 56 -31 73 -32z m-2731
-39 c8 -87 -1 -138 -14 -80 -13 63 -36 22 -27 -51 2 -20 8 -34 13 -31 5 3 9
-6 9 -20 0 -27 -14 -35 -24 -13 -3 6 -4 0 -2 -15 2 -16 -1 -28 -5 -28 -5 0 -9
71 -9 157 0 145 1 156 16 135 22 -32 34 -27 27 11 -3 17 -3 29 1 25 5 -3 11
-44 15 -90z m2991 10 c0 -23 -3 -29 -9 -19 -8 12 -4 51 5 51 2 0 4 -15 4 -32z
m180 -23 c0 -8 -4 -15 -10 -15 -5 0 -10 7 -10 15 0 8 5 15 10 15 6 0 10 -7 10
-15z m-1703 -87 c-3 -8 -6 -5 -6 6 -1 11 2 17 5 13 3 -3 4 -12 1 -19z m1713
-20 c0 -12 -1 -19 -3 -17 -1 2 -9 12 -16 22 -12 14 -11 17 3 17 10 0 16 -8 16
-22z m-3170 -29 c0 -5 -4 -9 -10 -9 -5 0 -10 7 -10 16 0 8 5 12 10 9 6 -3 10
-10 10 -16z m714 -9 c8 0 17 -7 20 -16 5 -12 1 -14 -15 -9 -15 5 -19 4 -15 -4
4 -6 1 -11 -6 -11 -8 0 -14 14 -15 38 -2 29 0 33 8 20 5 -10 16 -18 23 -18z
m2431 -30 c3 -5 1 -10 -4 -10 -6 0 -11 5 -11 10 0 6 2 10 4 10 3 0 8 -4 11
-10z m-3152 -47 c-7 -2 -19 -2 -25 0 -7 3 -2 5 12 5 14 0 19 -2 13 -5z m3240
0 c-7 -2 -19 -2 -25 0 -7 3 -2 5 12 5 14 0 19 -2 13 -5z"/>
<path d="M625 3810 c-3 -5 -1 -10 4 -10 6 0 11 5 11 10 0 6 -2 10 -4 10 -3 0
-8 -4 -11 -10z"/>
<path d="M570 2120 c0 -5 5 -10 10 -10 6 0 10 5 10 10 0 6 -4 10 -10 10 -5 0
-10 -4 -10 -10z"/>
<path d="M628 1828 c-4 -8 -3 -30 1 -49 l7 -34 5 31 c6 38 -4 77 -13 52z"/>
<path d="M631 1574 c0 -11 3 -14 6 -6 3 7 2 16 -1 19 -3 4 -6 -2 -5 -13z"/>
<path d="M651 1494 c0 -11 3 -14 6 -6 3 7 2 16 -1 19 -3 4 -6 -2 -5 -13z"/>
<path d="M3850 2444 c1 -34 3 -44 10 -34 9 17 7 66 -4 77 -3 3 -6 -16 -6 -43z"/>
<path d="M1090 1315 c0 -8 5 -15 10 -15 6 0 10 7 10 15 0 8 -4 15 -10 15 -5 0
-10 -7 -10 -15z"/>
<path d="M1122 1260 c0 -14 2 -19 5 -12 2 6 2 18 0 25 -3 6 -5 1 -5 -13z"/>
<path d="M1049 1260 c-8 -22 2 -110 12 -110 11 0 11 29 1 85 -4 22 -10 33 -13
25z"/>
<path d="M1090 1175 c0 -8 5 -15 10 -15 6 0 10 7 10 15 0 8 -4 15 -10 15 -5 0
-10 -7 -10 -15z"/>
<path d="M1121 1174 c0 -11 3 -14 6 -6 3 7 2 16 -1 19 -3 4 -6 -2 -5 -13z"/>
<path d="M1060 1019 c0 -5 5 -7 10 -4 6 3 10 8 10 11 0 2 -4 4 -10 4 -5 0 -10
-5 -10 -11z"/>
<path d="M1191 994 c0 -11 3 -14 6 -6 3 7 2 16 -1 19 -3 4 -6 -2 -5 -13z"/>
<path d="M1100 991 c0 -6 5 -13 10 -16 6 -3 10 1 10 9 0 9 -4 16 -10 16 -5 0
-10 -4 -10 -9z"/>
<path d="M1051 923 c5 -21 9 -61 9 -89 0 -27 5 -55 12 -62 8 -8 8 -15 0 -24
-7 -9 -9 -42 -6 -91 4 -53 2 -83 -6 -93 -7 -8 -8 -14 -3 -14 4 0 7 -19 6 -42
-2 -35 -1 -38 6 -18 9 25 9 25 11 -5 4 -74 17 27 23 186 4 91 9 173 13 183 3
9 1 16 -5 16 -6 0 -11 -9 -11 -19 0 -32 -20 -35 -22 -4 -1 15 -2 37 -3 48 -1
11 -3 30 -4 43 0 12 -7 22 -15 22 -11 0 -12 -8 -5 -37z"/>
<path d="M1078 418 c-6 -52 -4 -68 8 -68 16 0 20 65 4 75 -5 3 -11 0 -12 -7z"/>
<path d="M2343 2085 c0 -8 4 -15 9 -15 4 0 8 7 8 15 0 8 -4 15 -8 15 -5 0 -9
-7 -9 -15z"/>
<path d="M2350 1899 c0 -64 -5 -103 -15 -123 -19 -36 -19 -63 0 -74 14 -7 14
-18 5 -80 -7 -40 -9 -78 -7 -85 3 -6 6 2 6 20 1 17 5 33 11 35 10 3 16 386 5
396 -3 3 -5 -37 -5 -89z"/>
<path d="M2018 1618 c-2 -57 0 -123 3 -148 3 -25 7 19 7 103 1 81 0 147 -2
147 -3 0 -6 -46 -8 -102z"/>
<path d="M2520 1660 c0 -5 5 -10 10 -10 6 0 10 5 10 10 0 6 -4 10 -10 10 -5 0
-10 -4 -10 -10z"/>
<path d="M2352 1555 c0 -16 2 -22 5 -12 2 9 2 23 0 30 -3 6 -5 -1 -5 -18z"/>
<path d="M2351 1494 c0 -11 3 -14 6 -6 3 7 2 16 -1 19 -3 4 -6 -2 -5 -13z"/>
<path d="M2193 1435 c0 -22 2 -30 4 -17 2 12 2 30 0 40 -3 9 -5 -1 -4 -23z"/>
<path d="M2022 1390 c0 -14 2 -19 5 -12 2 6 2 18 0 25 -3 6 -5 1 -5 -13z"/>
<path d="M2022 1325 c0 -16 2 -22 5 -12 2 9 2 23 0 30 -3 6 -5 -1 -5 -18z"/>
<path d="M2191 1304 c0 -11 3 -14 6 -6 3 7 2 16 -1 19 -3 4 -6 -2 -5 -13z"/>
<path d="M2191 1194 c-1 -64 2 -83 14 -88 12 -4 14 4 8 57 -11 106 -21 120
-22 31z"/>
<path d="M2231 1204 c0 -11 3 -14 6 -6 3 7 2 16 -1 19 -3 4 -6 -2 -5 -13z"/>
<path d="M1893 1203 c-7 -3 -13 -11 -13 -18 0 -7 6 -16 13 -18 17 -8 -12 -27
-30 -20 -10 4 -13 -12 -13 -71 l0 -77 21 20 c12 11 18 24 15 30 -4 5 -2 12 3
16 6 3 11 -15 13 -42 3 -42 4 -39 8 23 4 55 2 70 -7 67 -7 -3 -13 0 -13 6 0 6
4 11 9 11 11 0 19 42 12 62 -3 8 -12 13 -18 11z"/>
<path d="M2024 1105 c0 -49 1 -71 3 -48 2 23 2 64 0 90 -2 26 -3 8 -3 -42z"/>
<path d="M2237 1151 c-4 -17 -3 -21 5 -13 5 5 8 16 6 23 -3 8 -7 3 -11 -10z"/>
<path d="M2852 1055 c0 -16 2 -22 5 -12 2 9 2 23 0 30 -3 6 -5 -1 -5 -18z"/>
<path d="M1900 956 c0 -9 5 -16 10 -16 6 0 10 4 10 9 0 6 -4 13 -10 16 -5 3
-10 -1 -10 -9z"/>
<path d="M2523 935 c0 -22 2 -30 4 -17 2 12 2 30 0 40 -3 9 -5 -1 -4 -23z"/>
<path d="M2772 940 c0 -14 2 -19 5 -12 2 6 2 18 0 25 -3 6 -5 1 -5 -13z"/>
<path d="M2212 920 c0 -19 2 -27 5 -17 2 9 2 25 0 35 -3 9 -5 1 -5 -18z"/>
<path d="M2852 920 c0 -19 2 -27 5 -17 2 9 2 25 0 35 -3 9 -5 1 -5 -18z"/>
<path d="M1801 904 c0 -11 3 -14 6 -6 3 7 2 16 -1 19 -3 4 -6 -2 -5 -13z"/>
<path d="M2854 690 c0 -107 2 -151 3 -97 2 53 2 141 0 195 -1 53 -3 9 -3 -98z"/>
<path d="M1793 743 c3 -115 18 -195 33 -180 4 3 1 43 -5 88 -6 45 -11 110 -11
145 0 35 -5 66 -10 69 -7 4 -9 -36 -7 -122z"/>
<path d="M2520 777 c0 -52 -3 -142 -7 -200 -4 -81 -3 -107 6 -107 7 0 10 7 7
18 -4 10 0 27 8 37 9 12 11 26 6 35 -4 8 -8 63 -9 122 0 82 3 110 14 122 17
17 20 30 5 21 -5 -3 -10 3 -10 14 0 11 -4 23 -10 26 -6 4 -10 -28 -10 -88z"/>
<path d="M2117 840 c-3 -11 -2 -20 3 -20 4 0 10 9 13 20 3 11 2 20 -3 20 -4 0
-10 -9 -13 -20z"/>
<path d="M2381 804 c0 -11 3 -14 6 -6 3 7 2 16 -1 19 -3 4 -6 -2 -5 -13z"/>
<path d="M2181 790 c0 -8 4 -22 9 -30 12 -18 12 -2 0 25 -6 13 -9 15 -9 5z"/>
<path d="M1890 690 c0 -19 3 -21 12 -12 9 9 9 15 0 24 -9 9 -12 7 -12 -12z"/>
<path d="M1880 590 c0 -5 7 -10 16 -10 8 0 12 5 9 10 -3 6 -10 10 -16 10 -5 0
-9 -4 -9 -10z"/>
<path d="M1823 515 c0 -22 2 -30 4 -17 2 12 2 30 0 40 -3 9 -5 -1 -4 -23z"/>
<path d="M1885 520 c-7 -12 2 -30 16 -30 5 0 9 9 9 20 0 21 -15 27 -25 10z"/>
<path d="M2252 410 c0 -14 2 -19 5 -12 2 6 2 18 0 25 -3 6 -5 1 -5 -13z"/>
<path d="M2711 394 c0 -11 3 -14 6 -6 3 7 2 16 -1 19 -3 4 -6 -2 -5 -13z"/>
<path d="M1880 375 c0 -16 6 -25 15 -25 9 0 15 9 15 25 0 16 -6 25 -15 25 -9
0 -15 -9 -15 -25z"/>
<path d="M2254 359 c-3 -5 6 -9 20 -9 31 0 34 6 6 13 -11 3 -23 1 -26 -4z"/>
<path d="M713 1975 c0 -33 2 -45 4 -27 2 18 2 45 0 60 -2 15 -4 0 -4 -33z"/>
<path d="M720 1681 c0 -6 4 -13 10 -16 6 -3 7 1 4 9 -7 18 -14 21 -14 7z"/>
<path d="M751 1624 c0 -11 3 -14 6 -6 3 7 2 16 -1 19 -3 4 -6 -2 -5 -13z"/>
<path d="M718 1415 c-3 -6 -8 -32 -12 -60 -5 -41 -4 -47 5 -30 7 11 17 23 22
27 7 4 7 18 1 40 -5 18 -12 28 -16 23z"/>
<path d="M726 1088 c3 -16 2 -28 -3 -28 -5 0 -10 -6 -10 -13 0 -7 9 -13 21
-13 13 1 23 -8 28 -24 6 -18 6 -14 3 15 -3 22 -5 48 -5 58 0 11 -5 15 -11 11
-6 -3 -15 0 -20 7 -7 9 -7 5 -3 -13z"/>
<path d="M761 943 c1 -10 5 -29 9 -43 7 -22 8 -21 9 12 1 20 -3 40 -9 43 -5 3
-10 -2 -9 -12z"/>
<path d="M727 913 c8 -55 19 -60 15 -8 -2 25 -8 45 -12 45 -5 0 -6 -17 -3 -37z"/>
<path d="M806 885 c4 -8 8 -15 10 -15 2 0 4 7 4 15 0 8 -4 15 -10 15 -5 0 -7
-7 -4 -15z"/>
<path d="M770 850 c0 -19 3 -21 12 -12 9 9 9 15 0 24 -9 9 -12 7 -12 -12z"/>
<path d="M717 810 c-3 -11 -1 -20 4 -20 5 0 9 9 9 20 0 11 -2 20 -4 20 -2 0
-6 -9 -9 -20z"/>
<path d="M3984 2045 c-3 -8 -4 -20 -2 -27 3 -7 7 -1 10 15 6 29 1 36 -8 12z"/>
<path d="M3920 1821 c0 -16 5 -33 10 -36 6 -4 10 6 10 24 0 16 -4 33 -10 36
-6 4 -10 -6 -10 -24z"/>
<path d="M3980 1780 c0 -5 5 -10 11 -10 5 0 7 5 4 10 -3 6 -8 10 -11 10 -2 0
-4 -4 -4 -10z"/>
<path d="M3910 1638 c0 -7 5 -20 10 -28 8 -12 10 -9 10 13 0 15 -4 27 -10 27
-5 0 -10 -6 -10 -12z"/>
<path d="M3977 1484 c-8 -8 1 -24 14 -24 5 0 9 7 9 15 0 15 -12 20 -23 9z"/>
<path d="M3926 1362 c-2 -4 -7 -24 -11 -45 -6 -30 -4 -37 9 -37 10 0 16 -8 15
-22 0 -22 -1 -22 -9 -3 -6 15 -9 6 -9 -32 -1 -61 14 -71 22 -15 3 20 8 54 12
75 10 57 -9 111 -29 79z"/>
<path d="M3920 860 c0 -11 5 -20 10 -20 6 0 10 9 10 20 0 11 -4 20 -10 20 -5
0 -10 -9 -10 -20z"/>
<path d="M591 1414 c0 -11 3 -14 6 -6 3 7 2 16 -1 19 -3 4 -6 -2 -5 -13z"/>
<path d="M1615 1270 c3 -5 8 -10 11 -10 2 0 4 5 4 10 0 6 -5 10 -11 10 -5 0
-7 -4 -4 -10z"/>
<path d="M1686 1240 c5 -14 9 -76 9 -138 -1 -72 2 -104 8 -90 4 13 8 61 7 108
-2 115 -1 113 -18 129 -13 13 -14 12 -6 -9z"/>
<path d="M1469 1234 c-7 -8 -8 -14 -3 -13 23 4 26 -2 8 -15 -19 -15 -19 -15 1
-29 11 -9 23 -13 27 -11 5 3 8 -68 9 -158 0 -90 3 -155 7 -146 6 16 8 301 2
358 -2 21 -4 20 -10 -10 l-7 -35 -2 32 c-1 38 -14 49 -32 27z"/>
<path d="M1651 1214 c0 -11 3 -14 6 -6 3 7 2 16 -1 19 -3 4 -6 -2 -5 -13z"/>
<path d="M1651 1174 c0 -11 3 -14 6 -6 3 7 2 16 -1 19 -3 4 -6 -2 -5 -13z"/>
<path d="M1486 1132 c-3 -5 -1 -22 4 -38 8 -29 8 -29 9 9 1 36 -3 45 -13 29z"/>
<path d="M1549 1048 c-6 -21 -5 -39 2 -44 5 -3 9 6 9 20 0 21 -7 36 -11 24z"/>
<path d="M3180 1169 c0 -11 5 -17 10 -14 6 3 10 13 10 21 0 8 -4 14 -10 14 -5
0 -10 -9 -10 -21z"/>
<path d="M3180 1111 c0 -17 5 -31 10 -31 6 0 10 11 10 24 0 14 -4 28 -10 31
-6 4 -10 -7 -10 -24z"/>
<path d="M1628 713 c7 -3 16 -2 19 1 4 3 -2 6 -13 5 -11 0 -14 -3 -6 -6z"/>
<path d="M1600 679 c0 -5 5 -7 10 -4 6 3 10 8 10 11 0 2 -4 4 -10 4 -5 0 -10
-5 -10 -11z"/>
<path d="M1610 596 c0 -14 -5 -28 -11 -32 -8 -4 -7 -9 2 -15 10 -6 11 -9 2 -9
-7 0 -13 -7 -13 -15 0 -12 4 -13 25 -3 18 8 24 17 19 30 -3 12 0 18 10 18 11
0 16 9 15 28 -1 16 -3 20 -6 10 -5 -22 -23 -24 -23 -3 0 8 -4 15 -10 15 -5 0
-10 -11 -10 -24z"/>
<path d="M1552 445 c0 -16 2 -22 5 -12 2 9 2 23 0 30 -3 6 -5 -1 -5 -18z"/>
<path d="M3411 614 c0 -11 3 -14 6 -6 3 7 2 16 -1 19 -3 4 -6 -2 -5 -13z"/>
<path d="M3440 600 c0 -6 7 -10 15 -10 8 0 15 2 15 4 0 2 -7 6 -15 10 -8 3
-15 1 -15 -4z"/>
<path d="M3381 574 c0 -11 3 -14 6 -6 3 7 2 16 -1 19 -3 4 -6 -2 -5 -13z"/>
<path d="M3410 526 c0 -9 5 -16 10 -16 6 0 10 4 10 9 0 6 -4 13 -10 16 -5 3
-10 -1 -10 -9z"/>
<path d="M3468 353 c7 -3 16 -2 19 1 4 3 -2 6 -13 5 -11 0 -14 -3 -6 -6z"/>
<path d="M712 581 c4 -13 18 -16 19 -4 0 4 -5 9 -11 12 -7 2 -11 -2 -8 -8z"/>
<path d="M1204 4282 c-6 -4 -8 -15 -5 -24 3 -10 4 -50 1 -90 -7 -86 4 -216 19
-231 8 -8 11 3 11 37 0 26 6 57 13 69 6 12 17 40 24 62 11 40 11 40 12 8 2
-50 10 -63 42 -63 24 0 29 4 29 23 0 13 -5 28 -12 35 -6 6 -8 15 -4 19 4 4 12
1 17 -7 7 -11 9 -6 8 20 -3 63 0 87 11 70 5 -8 6 -33 3 -56 -3 -23 -1 -44 5
-48 9 -5 19 26 28 87 2 15 8 36 13 46 6 10 7 21 4 25 -3 3 -1 6 5 6 7 0 12 5
12 11 0 6 -14 9 -32 7 -27 -2 -34 -8 -39 -33 l-7 -30 -1 33 c0 17 -5 32 -10
32 -6 0 -8 -9 -6 -20 3 -13 -2 -20 -12 -20 -10 0 -14 6 -10 20 4 16 0 20 -20
20 -14 0 -22 -4 -18 -10 12 -20 15 -59 5 -65 -6 -4 -8 -11 -5 -16 4 -5 1 -17
-5 -26 -8 -14 -10 -8 -7 29 2 28 -1 49 -7 52 -6 3 -5 5 2 5 10 1 10 4 -2 16
-16 16 -44 19 -62 7z"/>
<path d="M1476 4275 c4 -8 15 -15 26 -15 18 0 19 -7 17 -100 -2 -60 -7 -100
-13 -100 -6 0 -5 -5 2 -12 6 -6 14 -9 17 -7 2 3 7 60 10 127 l5 122 -35 0
c-26 0 -33 -3 -29 -15z"/>
<path d="M1560 4280 c0 -5 5 -10 11 -10 5 0 7 5 4 10 -3 6 -8 10 -11 10 -2 0
-4 -4 -4 -10z"/>
<path d="M1860 4139 c0 -98 -4 -148 -10 -144 -5 3 -10 1 -10 -4 0 -6 5 -11 10
-11 6 0 10 -27 10 -62 0 -34 3 -59 6 -55 4 3 6 50 5 103 -2 71 2 99 11 106 9
6 10 10 2 16 -16 10 -19 173 -4 182 8 5 7 9 -4 13 -14 6 -16 -11 -16 -144z"/>
<path d="M2335 4271 c-3 -10 -1 -30 4 -45 6 -14 11 -64 12 -110 2 -134 19
-126 19 9 0 66 3 130 6 143 5 17 2 22 -14 22 -11 0 -23 -8 -27 -19z"/>
<path d="M2634 4278 c-4 -6 -3 -8 3 -5 6 4 14 0 17 -9 4 -12 2 -15 -9 -10 -9
3 -15 0 -15 -9 0 -10 10 -15 30 -15 17 0 30 -5 30 -12 0 -26 13 4 16 37 3 34
2 35 -31 35 -19 0 -37 -5 -41 -12z"/>
<path d="M2856 4223 c6 -58 5 -65 -9 -60 -24 9 -31 -10 -8 -22 21 -11 29 -47
33 -143 2 -35 6 -54 12 -48 5 5 8 32 7 61 -1 28 3 57 9 64 12 14 8 98 -5 129
-5 11 -3 21 4 26 9 5 6 9 -8 13 -12 3 -21 12 -21 21 0 10 6 13 15 10 8 -4 15
-1 15 5 0 6 -12 11 -26 11 l-26 0 8 -67z"/>
<path d="M2937 4284 c-6 -7 1 -146 9 -153 2 -2 4 18 4 45 0 28 6 56 13 63 10
11 9 14 -1 18 -6 3 -10 9 -7 13 6 10 -10 22 -18 14z"/>
<path d="M3040 4280 c0 -5 -10 -10 -21 -10 -21 0 -21 -2 -16 -141 3 -78 10
-146 15 -151 6 -6 6 -23 0 -46 -6 -20 -13 -59 -15 -85 -4 -39 -1 -51 13 -62
15 -11 16 -17 7 -38 -7 -14 -10 -33 -8 -43 13 -63 13 -96 2 -91 -7 3 -13 -6
-14 -21 -1 -18 1 -21 8 -11 6 10 9 6 9 -13 0 -16 -4 -28 -10 -28 -5 0 -10 -16
-10 -35 0 -26 3 -33 15 -29 12 5 15 -3 15 -41 0 -28 -4 -44 -10 -40 -6 4 -10
-8 -10 -29 0 -19 5 -38 10 -41 6 -4 8 -11 5 -16 -4 -5 -2 -9 2 -9 10 0 17 230
18 548 0 193 2 222 15 217 10 -3 10 -1 -2 9 -22 16 -23 26 -3 26 8 0 15 6 15
14 0 8 6 21 14 28 8 8 16 23 19 34 4 16 5 16 6 -3 2 -34 17 -28 26 10 l7 32 8
-32 c4 -18 6 -55 5 -83 -1 -28 1 -53 6 -56 5 -3 10 3 11 13 1 10 4 -25 8 -77
4 -69 3 -103 -7 -124 -11 -24 -11 -32 0 -45 8 -10 14 -50 16 -101 5 -147 11
-100 11 86 0 98 3 250 7 337 l6 157 -44 -1 c-24 0 -38 -3 -31 -6 14 -6 16 -33
2 -33 -5 0 -10 -8 -11 -17 0 -14 -3 -12 -10 5 -5 13 -15 30 -23 38 -17 16 -56
19 -56 4z"/>
<path d="M3223 4278 c2 -7 12 -13 22 -13 10 0 20 6 23 13 2 7 -6 12 -23 12
-17 0 -25 -5 -22 -12z"/>
<path d="M3348 4278 c15 -15 16 -60 1 -75 -9 -9 -9 -20 -1 -40 5 -15 11 -64
12 -108 3 -83 7 -191 9 -212 2 -24 19 -13 24 15 13 67 30 128 36 135 5 4 8
-13 9 -39 0 -25 5 -51 11 -57 8 -8 11 -2 11 22 0 28 3 33 20 28 12 -3 24 1 30
11 5 10 10 12 10 5 0 -7 4 -13 9 -13 6 0 10 67 10 155 1 85 4 161 7 170 5 13
-9 15 -102 15 -84 0 -105 -3 -96 -12z m169 -250 c-2 -13 -4 -3 -4 22 0 25 2
35 4 23 2 -13 2 -33 0 -45z"/>
<path d="M3656 4283 c19 -4 22 -11 22 -63 0 -45 -4 -57 -14 -53 -25 9 -32 -6
-19 -44 16 -47 46 -55 63 -18 6 14 17 24 23 23 6 -2 14 3 16 10 3 6 -2 12 -11
12 -13 0 -14 12 -11 70 l5 70 -48 -1 c-26 -1 -37 -4 -26 -6z m24 -173 c0 -5
-4 -10 -10 -10 -5 0 -10 5 -10 10 0 6 5 10 10 10 6 0 10 -4 10 -10z"/>
<path d="M4180 4211 c0 -54 -4 -81 -12 -84 -10 -4 -10 -6 0 -6 9 -1 12 -43 12
-178 0 -97 3 -173 8 -169 9 10 9 3 11 251 1 120 5 204 10 197 6 -10 11 -5 20
18 13 39 8 50 -25 50 -23 0 -24 -2 -24 -79z"/>
<path d="M4152 4235 c0 -16 2 -22 5 -12 2 9 2 23 0 30 -3 6 -5 -1 -5 -18z"/>
<path d="M3613 4243 c9 -2 25 -2 35 0 9 3 1 5 -18 5 -19 0 -27 -2 -17 -5z"/>
<path d="M1050 4216 c0 -14 5 -26 10 -26 6 0 10 9 10 19 0 11 -4 23 -10 26 -6
4 -10 -5 -10 -19z"/>
<path d="M2028 4205 c2 -19 6 -35 8 -35 2 0 4 16 4 35 0 19 -4 35 -8 35 -4 0
-6 -16 -4 -35z"/>
<path d="M1887 4206 c-5 -15 -6 -31 -3 -34 8 -8 18 25 14 45 -3 13 -6 10 -11
-11z"/>
<path d="M2661 4204 c0 -11 3 -14 6 -6 3 7 2 16 -1 19 -3 4 -6 -2 -5 -13z"/>
<path d="M3230 4201 c0 -6 5 -11 12 -11 6 0 3 -6 -8 -14 -25 -18 -12 -31 16
-16 12 6 20 19 18 28 -4 18 -38 30 -38 13z"/>
<path d="M1150 4175 c0 -8 5 -15 10 -15 6 0 10 7 10 15 0 8 -4 15 -10 15 -5 0
-10 -7 -10 -15z"/>
<path d="M2542 4165 c0 -16 2 -22 5 -12 2 9 2 23 0 30 -3 6 -5 -1 -5 -18z"/>
<path d="M2635 4153 c-14 -23 -7 -63 10 -63 7 0 16 13 20 30 10 45 -10 67 -30
33z"/>
<path d="M1160 4139 c0 -5 5 -7 10 -4 6 3 10 8 10 11 0 2 -4 4 -10 4 -5 0 -10
-5 -10 -11z"/>
<path d="M2022 4125 c0 -16 2 -22 5 -12 2 9 2 23 0 30 -3 6 -5 -1 -5 -18z"/>
<path d="M2540 4121 c0 -5 7 -12 16 -15 14 -5 15 -4 4 9 -14 17 -20 19 -20 6z"/>
<path d="M1160 4100 c0 -5 5 -10 11 -10 5 0 7 5 4 10 -3 6 -8 10 -11 10 -2 0
-4 -4 -4 -10z"/>
<path d="M2775 4097 c-4 -10 -5 -21 -1 -24 10 -10 18 4 13 24 -4 17 -4 17 -12
0z"/>
<path d="M1370 4031 c0 -22 5 -43 10 -46 6 -4 10 12 10 39 0 25 -4 46 -10 46
-5 0 -10 -18 -10 -39z"/>
<path d="M2625 4060 c-3 -5 -1 -10 4 -10 6 0 11 5 11 10 0 6 -2 10 -4 10 -3 0
-8 -4 -11 -10z"/>
<path d="M2617 4034 c-3 -3 -3 -13 0 -21 5 -12 7 -12 14 -1 15 23 4 40 -14 22z"/>
<path d="M3700 4016 c-12 -33 -12 -36 -1 -36 9 0 22 52 15 59 -2 2 -8 -8 -14
-23z"/>
<path d="M1150 4013 c0 -4 5 -15 10 -23 8 -13 10 -13 10 2 0 9 -4 20 -10 23
-5 3 -10 3 -10 -2z"/>
<path d="M1523 3985 c0 -22 2 -30 4 -17 2 12 2 30 0 40 -3 9 -5 -1 -4 -23z"/>
<path d="M1250 4000 c0 -5 5 -10 11 -10 5 0 7 5 4 10 -3 6 -8 10 -11 10 -2 0
-4 -4 -4 -10z"/>
<path d="M1345 4000 c-3 -5 -12 -7 -20 -4 -10 4 -13 -2 -13 -24 1 -22 5 -29
16 -25 7 3 17 0 22 -6 4 -7 7 5 7 28 0 42 -2 48 -12 31z"/>
<path d="M1090 3964 c0 -8 5 -12 10 -9 6 4 8 11 5 16 -9 14 -15 11 -15 -7z"/>
<path d="M2362 3940 c0 -14 2 -19 5 -12 2 6 2 18 0 25 -3 6 -5 1 -5 -13z"/>
<path d="M3680 3940 c0 -5 4 -10 9 -10 6 0 13 5 16 10 3 6 -1 10 -9 10 -9 0
-16 -4 -16 -10z"/>
<path d="M4271 3914 c0 -11 3 -14 6 -6 3 7 2 16 -1 19 -3 4 -6 -2 -5 -13z"/>
<path d="M2356 3884 c-4 -15 -2 -32 3 -37 8 -8 11 0 11 26 0 44 -5 47 -14 11z"/>
<path d="M3590 3891 c0 -5 5 -13 10 -16 6 -3 10 -2 10 4 0 5 -4 13 -10 16 -5
3 -10 2 -10 -4z"/>
<path d="M4055 3861 c-3 -5 -1 -12 5 -16 5 -3 10 1 10 9 0 18 -6 21 -15 7z"/>
<path d="M3588 3833 c7 -3 16 -2 19 1 4 3 -2 6 -13 5 -11 0 -14 -3 -6 -6z"/>
<path d="M2352 3810 c0 -14 2 -19 5 -12 2 6 2 18 0 25 -3 6 -5 1 -5 -13z"/>
<path d="M3360 3740 c0 -37 2 -41 16 -30 17 15 15 61 -3 68 -9 2 -13 -9 -13
-38z"/>
<path d="M2350 3755 c0 -11 5 -27 10 -35 8 -12 10 -12 10 5 0 11 -5 27 -10 35
-8 12 -10 12 -10 -5z"/>
<path d="M3710 3673 c0 -53 2 -94 4 -92 2 2 7 46 10 97 5 63 4 92 -3 92 -7 0
-11 -34 -11 -97z"/>
<path d="M3531 3710 c0 -37 2 -41 9 -22 6 13 6 31 0 45 -7 18 -9 14 -9 -23z"/>
<path d="M4191 3680 c-1 -19 -4 -79 -7 -132 -4 -64 -2 -98 4 -98 12 0 20 165
11 225 l-6 40 -2 -35z"/>
<path d="M3367 3653 c-4 -3 -7 -32 -7 -64 0 -32 -5 -63 -12 -71 -7 -7 -14 -32
-16 -55 -2 -34 2 -44 18 -53 20 -10 20 -8 20 100 0 67 4 110 10 110 6 0 10 9
10 20 0 20 -11 26 -23 13z"/>
<path d="M4222 3570 c0 -14 2 -19 5 -12 2 6 2 18 0 25 -3 6 -5 1 -5 -13z"/>
<path d="M4255 3559 c11 -51 27 -61 23 -15 -2 22 -9 41 -17 44 -10 3 -12 -3
-6 -29z"/>
<path d="M3191 3524 c0 -11 3 -14 6 -6 3 7 2 16 -1 19 -3 4 -6 -2 -5 -13z"/>
<path d="M3811 3507 c-8 -11 -6 -18 9 -32 19 -18 20 -17 20 4 0 14 -4 20 -12
15 -8 -5 -9 -2 -5 9 8 20 3 22 -12 4z"/>
<path d="M2871 3494 c0 -11 3 -14 6 -6 3 7 2 16 -1 19 -3 4 -6 -2 -5 -13z"/>
<path d="M4221 3494 c0 -11 3 -14 6 -6 3 7 2 16 -1 19 -3 4 -6 -2 -5 -13z"/>
<path d="M3192 3450 c0 -14 2 -19 5 -12 2 6 2 18 0 25 -3 6 -5 1 -5 -13z"/>
<path d="M3191 3404 c0 -11 3 -14 6 -6 3 7 2 16 -1 19 -3 4 -6 -2 -5 -13z"/>
<path d="M4244 3396 c-3 -8 -1 -23 5 -33 9 -15 10 -13 11 15 0 34 -7 42 -16
18z"/>
<path d="M2346 3363 c-7 -46 -8 -108 -1 -101 6 5 17 138 11 138 -2 0 -6 -17
-10 -37z"/>
<path d="M3711 3364 c0 -11 3 -14 6 -6 3 7 2 16 -1 19 -3 4 -6 -2 -5 -13z"/>
<path d="M3323 3356 c5 -16 47 -20 47 -4 0 7 -11 14 -25 14 -16 1 -24 -3 -22
-10z"/>
<path d="M3524 3280 c0 -52 1 -74 3 -47 2 26 2 68 0 95 -2 26 -3 4 -3 -48z"/>
<path d="M3395 3350 c-3 -5 -1 -10 4 -10 6 0 11 5 11 10 0 6 -2 10 -4 10 -3 0
-8 -4 -11 -10z"/>
<path d="M966 3321 c-4 -5 0 -11 6 -14 9 -3 7 -10 -7 -21 -19 -16 -19 -16 5
-7 28 9 41 51 16 51 -8 0 -17 -4 -20 -9z"/>
<path d="M3858 3301 c-2 -16 -1 -37 2 -47 6 -17 7 -17 17 0 10 19 6 63 -7 71
-4 3 -10 -8 -12 -24z"/>
<path d="M3406 3312 c-3 -5 -2 -21 3 -34 8 -20 10 -21 16 -6 8 20 -9 56 -19
40z"/>
<path d="M3025 3248 c-4 -18 -6 -37 -5 -43 2 -5 6 -30 10 -55 6 -37 8 -30 9
43 0 48 -1 87 -3 87 -2 0 -7 -15 -11 -32z"/>
<path d="M1035 3243 c-14 -31 -16 -61 -5 -68 5 -3 10 -17 10 -30 0 -33 10 -55
26 -55 10 0 12 12 7 53 -3 28 -11 58 -17 66 -6 8 -10 22 -8 33 4 23 -4 23 -13
1z"/>
<path d="M640 3235 c0 -8 5 -15 10 -15 6 0 10 7 10 15 0 8 -4 15 -10 15 -5 0
-10 -7 -10 -15z"/>
<path d="M1352 3210 c0 -14 2 -19 5 -12 2 6 2 18 0 25 -3 6 -5 1 -5 -13z"/>
<path d="M3857 3178 c-8 -59 -7 -133 0 -105 2 9 8 17 11 17 8 0 9 127 1 135
-4 3 -9 -18 -12 -47z"/>
<path d="M3092 3190 c0 -19 2 -27 5 -17 2 9 2 25 0 35 -3 9 -5 1 -5 -18z"/>
<path d="M1855 3200 c-3 -5 -1 -10 4 -10 6 0 11 5 11 10 0 6 -2 10 -4 10 -3 0
-8 -4 -11 -10z"/>
<path d="M4190 3208 c-6 -65 -5 -468 1 -468 5 0 9 9 9 19 0 11 5 23 10 26 7 4
7 11 2 18 -5 7 -6 38 -3 70 4 31 4 62 0 68 -8 14 -5 97 5 106 4 4 11 1 16 -7
8 -12 10 -10 10 7 0 16 -4 21 -15 17 -12 -5 -15 3 -15 40 0 25 5 46 10 46 18
0 10 39 -10 50 -11 6 -20 9 -20 8z"/>
<path d="M800 3168 c0 -23 3 -29 9 -19 8 12 4 51 -5 51 -2 0 -4 -15 -4 -32z"/>
<path d="M1150 3105 c0 -19 2 -35 4 -35 2 0 6 16 8 35 2 19 0 35 -4 35 -4 0
-8 -16 -8 -35z"/>
<path d="M1332 3132 c-10 -7 -10 -15 -2 -36 5 -15 8 -37 5 -49 -3 -12 -2 -40
4 -62 9 -40 9 -40 10 20 1 33 4 77 7 98 7 37 1 44 -24 29z"/>
<path d="M3091 3124 c0 -11 3 -14 6 -6 3 7 2 16 -1 19 -3 4 -6 -2 -5 -13z"/>
<path d="M795 3097 c-4 -10 -5 -21 -1 -24 10 -10 18 4 13 24 -4 17 -4 17 -12
0z"/>
<path d="M3021 3070 c0 -19 4 -44 8 -55 6 -15 8 -10 9 20 0 23 -3 47 -9 55 -6
11 -9 5 -8 -20z"/>
<path d="M1300 3055 c0 -8 2 -15 4 -15 2 0 6 7 10 15 3 8 1 15 -4 15 -6 0 -10
-7 -10 -15z"/>
<path d="M3193 2990 c0 -36 2 -50 4 -32 2 17 2 47 0 65 -2 17 -4 3 -4 -33z"/>
<path d="M3849 2992 c-2 -30 -2 -56 0 -58 2 -2 6 -19 8 -36 2 -26 1 -30 -8
-18 -8 11 -9 0 -5 -40 3 -30 7 -83 8 -118 1 -35 5 -65 9 -67 13 -9 27 120 24
230 -4 135 -3 127 -14 120 -5 -3 -11 5 -13 17 -2 13 -6 -1 -9 -30z"/>
<path d="M640 2991 c0 -52 14 -61 18 -11 1 21 -2 41 -8 45 -6 4 -10 -9 -10
-34z"/>
<path d="M3708 2862 c-3 -185 5 -259 15 -137 10 119 9 283 -2 290 -6 3 -11
-55 -13 -153z"/>
<path d="M750 2961 c0 -10 19 -25 25 -20 1 2 -3 10 -11 17 -8 7 -14 8 -14 3z"/>
<path d="M3806 2954 c-3 -10 -2 -32 2 -49 l8 -30 7 33 c8 40 -6 79 -17 46z"/>
<path d="M3360 2935 c1 -26 2 -28 11 -12 8 14 8 22 0 30 -8 8 -11 3 -11 -18z"/>
<path d="M4268 2943 c-3 -10 -1 -40 2 -68 l7 -50 2 68 c1 67 -3 83 -11 50z"/>
<path d="M681 2873 c0 -40 -4 -73 -8 -73 -5 0 -7 -34 -5 -75 2 -41 8 -75 13
-75 5 0 9 10 10 23 0 12 2 47 4 77 1 30 -1 87 -5 125 l-7 70 -2 -72z"/>
<path d="M3190 2741 l0 -183 -32 27 c-18 15 -43 31 -57 37 -21 8 -141 12 -241
9 -13 -1 -15 -38 -15 -276 0 -151 3 -275 7 -275 4 0 9 -12 11 -27 l4 -28 2 27
1 26 114 4 c110 3 116 4 160 35 l45 32 4 -97 3 -97 1 110 c1 61 6 131 13 156
9 35 9 56 0 88 -8 32 -8 55 1 96 8 38 9 61 1 84 -6 17 -11 116 -12 227 0 109
-3 200 -5 203 -3 2 -5 -78 -5 -178z m-132 -278 c-2 -31 -7 -39 -25 -41 -21 -3
-23 1 -23 37 0 37 2 41 26 41 23 0 25 -3 22 -37z m-3 -202 c0 -49 -2 -55 -22
-56 -21 -2 -23 2 -23 57 0 56 1 59 23 56 20 -3 22 -9 22 -57z"/>
<path d="M3028 2460 c-3 -16 -1 -30 4 -30 4 0 8 14 8 30 0 17 -2 30 -4 30 -2
0 -6 -13 -8 -30z"/>
<path d="M3032 2260 c0 -14 2 -19 5 -12 2 6 2 18 0 25 -3 6 -5 1 -5 -13z"/>
<path d="M640 2878 c0 -19 2 -20 10 -8 13 19 13 30 0 30 -5 0 -10 -10 -10 -22z"/>
<path d="M580 2880 c0 -5 5 -10 11 -10 5 0 7 5 4 10 -3 6 -8 10 -11 10 -2 0
-4 -4 -4 -10z"/>
<path d="M3032 2855 c0 -16 2 -22 5 -12 2 9 2 23 0 30 -3 6 -5 -1 -5 -18z"/>
<path d="M3360 2856 c0 -17 14 -29 23 -20 8 8 -3 34 -14 34 -5 0 -9 -6 -9 -14z"/>
<path d="M3822 2830 c0 -14 2 -19 5 -12 2 6 2 18 0 25 -3 6 -5 1 -5 -13z"/>
<path d="M1370 2815 c0 -15 4 -24 10 -20 6 3 10 12 10 20 0 8 -4 17 -10 20 -6
4 -10 -5 -10 -20z"/>
<path d="M630 2823 c0 -5 5 -15 10 -23 8 -12 10 -11 10 8 0 12 -4 22 -10 22
-5 0 -10 -3 -10 -7z"/>
<path d="M1851 2794 c0 -11 3 -14 6 -6 3 7 2 16 -1 19 -3 4 -6 -2 -5 -13z"/>
<path d="M1380 2747 c0 -19 4 -25 15 -21 8 4 15 10 15 14 0 4 -7 13 -15 20
-13 11 -15 8 -15 -13z"/>
<path d="M1851 2744 c0 -11 3 -14 6 -6 3 7 2 16 -1 19 -3 4 -6 -2 -5 -13z"/>
<path d="M3363 2720 c0 -25 2 -35 4 -22 2 12 2 32 0 45 -2 12 -4 2 -4 -23z"/>
<path d="M631 2734 c0 -11 3 -14 6 -6 3 7 2 16 -1 19 -3 4 -6 -2 -5 -13z"/>
<path d="M825 2740 c-3 -5 -1 -18 4 -27 9 -16 10 -14 11 10 0 28 -5 34 -15 17z"/>
<path d="M3027 2706 c-4 -10 -5 -21 -2 -24 9 -9 17 6 13 25 -3 17 -4 17 -11
-1z"/>
<path d="M560 2686 c0 -14 5 -26 10 -26 6 0 10 7 10 15 0 8 0 18 1 22 0 4 -4
9 -10 11 -6 2 -11 -8 -11 -22z"/>
<path d="M1040 2655 c0 -32 3 -55 7 -52 7 8 5 98 -2 105 -3 3 -5 -21 -5 -53z"/>
<path d="M4180 2694 c0 -8 5 -12 10 -9 6 3 10 10 10 16 0 5 -4 9 -10 9 -5 0
-10 -7 -10 -16z"/>
<path d="M831 2674 c0 -11 3 -14 6 -6 3 7 2 16 -1 19 -3 4 -6 -2 -5 -13z"/>
<path d="M3020 2660 c0 -5 5 -10 11 -10 5 0 7 5 4 10 -3 6 -8 10 -11 10 -2 0
-4 -4 -4 -10z"/>
<path d="M3220 2654 c0 -8 5 -12 10 -9 6 3 10 10 10 16 0 5 -4 9 -10 9 -5 0
-10 -7 -10 -16z"/>
<path d="M1851 2634 c0 -11 3 -14 6 -6 3 7 2 16 -1 19 -3 4 -6 -2 -5 -13z"/>
<path d="M1510 2633 c-13 -3 -15 -42 -15 -278 l0 -275 85 0 86 0 -3 68 -3 67
15 -50 c8 -27 13 -58 11 -67 -3 -14 8 -17 86 -20 50 -2 91 -1 93 2 6 9 -7 60
-14 56 -3 -2 -17 34 -29 80 l-24 84 26 31 c15 17 27 25 27 17 1 -7 5 10 10 37
9 57 1 132 -15 153 -33 43 -83 82 -110 87 -40 6 -206 12 -226 8z m188 -135
c18 -18 15 -95 -4 -102 -30 -12 -34 -6 -34 54 0 61 11 75 38 48z"/>
<path d="M3978 2629 c-3 -8 0 -23 8 -34 16 -21 18 -5 5 29 -6 16 -9 17 -13 5z"/>
<path d="M1411 2584 c0 -11 3 -14 6 -6 3 7 2 16 -1 19 -3 4 -6 -2 -5 -13z"/>
<path d="M4185 2511 c2 -52 15 -86 15 -38 0 14 2 31 5 39 3 7 -1 22 -8 32 -12
17 -14 13 -12 -33z"/>
<path d="M2022 2410 c0 -14 2 -19 5 -12 2 6 2 18 0 25 -3 6 -5 1 -5 -13z"/>
<path d="M4180 2371 c0 -22 5 -43 10 -46 6 -4 10 12 10 39 0 25 -4 46 -10 46
-5 0 -10 -18 -10 -39z"/>
<path d="M2021 2364 c0 -11 3 -14 6 -6 3 7 2 16 -1 19 -3 4 -6 -2 -5 -13z"/>
<path d="M1851 2294 c0 -11 3 -14 6 -6 3 7 2 16 -1 19 -3 4 -6 -2 -5 -13z"/>
<path d="M3020 2049 c0 -5 5 -7 10 -4 6 3 10 8 10 11 0 2 -4 4 -10 4 -5 0 -10
-5 -10 -11z"/>
<path d="M3397 2023 c-8 -12 10 -69 19 -60 3 2 1 20 -3 38 -5 19 -12 29 -16
22z"/>
<path d="M2860 1996 c0 -14 5 -28 10 -31 6 -3 10 5 10 19 0 14 -4 28 -10 31
-6 3 -10 -5 -10 -19z"/>
<path d="M3361 1984 c0 -11 3 -14 6 -6 3 7 2 16 -1 19 -3 4 -6 -2 -5 -13z"/>
<path d="M3712 1979 c-10 -15 -11 -24 -3 -32 15 -15 23 -3 19 27 -3 27 -3 27
-16 5z"/>
<path d="M4050 1936 c0 -8 5 -18 10 -21 6 -3 10 3 10 14 0 12 -4 21 -10 21 -5
0 -10 -6 -10 -14z"/>
<path d="M2867 1927 c-3 -8 -1 -20 4 -28 6 -10 9 -7 9 14 0 29 -5 35 -13 14z"/>
<path d="M2930 1914 c0 -14 4 -23 9 -20 5 3 7 15 4 26 -7 28 -13 25 -13 -6z"/>
<path d="M3187 1759 c1 -89 5 -164 8 -167 3 -3 5 70 5 161 0 92 -3 167 -7 167
-5 0 -7 -73 -6 -161z"/>
<path d="M3700 1884 c0 -8 5 -12 10 -9 6 4 8 11 5 16 -9 14 -15 11 -15 -7z"/>
<path d="M1852 1865 c0 -16 2 -22 5 -12 2 9 2 23 0 30 -3 6 -5 -1 -5 -18z"/>
<path d="M2870 1829 c0 -5 5 -7 10 -4 6 3 10 8 10 11 0 2 -4 4 -10 4 -5 0 -10
-5 -10 -11z"/>
<path d="M3151 1804 c0 -11 3 -14 6 -6 3 7 2 16 -1 19 -3 4 -6 -2 -5 -13z"/>
<path d="M3704 1757 c-3 -9 -4 -26 -1 -39 l4 -23 9 25 8 25 7 -25 7 -25 1 26
c1 32 -25 60 -35 36z"/>
<path d="M4271 1734 c0 -11 3 -14 6 -6 3 7 2 16 -1 19 -3 4 -6 -2 -5 -13z"/>
<path d="M1681 1674 c0 -11 3 -14 6 -6 3 7 2 16 -1 19 -3 4 -6 -2 -5 -13z"/>
<path d="M3700 1576 c0 -59 4 -108 10 -111 6 -4 10 31 10 99 0 59 -4 108 -10
111 -6 4 -10 -31 -10 -99z"/>
<path d="M1520 1646 c0 -10 9 -16 21 -16 24 0 21 23 -4 28 -10 2 -17 -3 -17
-12z"/>
<path d="M3100 1640 c0 -5 5 -10 10 -10 6 0 10 5 10 10 0 6 -4 10 -10 10 -5 0
-10 -4 -10 -10z"/>
<path d="M1527 1593 c-11 -11 -8 -45 4 -38 6 4 8 13 5 21 -3 8 -1 14 4 14 6 0
10 -13 10 -29 0 -29 11 -46 23 -35 3 4 2 14 -3 23 -5 9 -11 24 -14 34 -6 18
-18 22 -29 10z"/>
<path d="M3180 1570 c0 -5 5 -10 11 -10 5 0 7 5 4 10 -3 6 -8 10 -11 10 -2 0
-4 -4 -4 -10z"/>
<path d="M1521 1514 c0 -11 3 -14 6 -6 3 7 2 16 -1 19 -3 4 -6 -2 -5 -13z"/>
<path d="M3491 1474 c0 -11 3 -14 6 -6 3 7 2 16 -1 19 -3 4 -6 -2 -5 -13z"/>
<path d="M1519 1478 c-6 -16 -4 -78 3 -78 4 0 8 18 8 40 0 22 -2 40 -5 40 -3
0 -5 -1 -6 -2z"/>
<path d="M4078 1274 c-5 -4 -8 -19 -8 -33 0 -18 3 -22 11 -14 6 6 9 21 7 33
-1 12 -6 18 -10 14z"/>
<path d="M3790 1049 c0 -5 5 -7 10 -4 6 3 10 8 10 11 0 2 -4 4 -10 4 -5 0 -10
-5 -10 -11z"/>
<path d="M3481 954 c0 -11 3 -14 6 -6 3 7 2 16 -1 19 -3 4 -6 -2 -5 -13z"/>
</g>
</svg>
