<?xml version="1.0" standalone="no"?>
<!DOCTYPE svg PUBLIC "-//W3C//DTD SVG 20010904//EN"
 "http://www.w3.org/TR/2001/REC-SVG-20010904/DTD/svg10.dtd">
<svg version="1.0" xmlns="http://www.w3.org/2000/svg"
 width="1200.000000pt" height="630.000000pt" viewBox="0 0 1200.000000 630.000000"
 preserveAspectRatio="xMidYMid meet">

<g transform="translate(0.000000,630.000000) scale(0.100000,-0.100000)"
fill="#000000" stroke="none">
<path d="M6370 6190 c-497 -44 -966 -231 -1345 -537 -118 -95 -313 -294 -406
-413 -362 -466 -546 -1053 -509 -1625 25 -387 108 -679 299 -1050 58 -111 61
-122 52 -155 -8 -26 -169 -193 -680 -705 -449 -450 -682 -691 -710 -733 -131
-200 -155 -404 -68 -577 40 -80 162 -202 242 -242 173 -87 377 -63 577 68 42
28 283 261 734 711 580 578 676 671 709 678 35 8 48 4 154 -52 203 -106 384
-177 581 -228 465 -119 942 -99 1400 61 226 79 494 226 690 378 119 93 318
288 413 406 666 826 726 2009 146 2900 -390 600 -1010 994 -1732 1100 -130 19
-416 27 -547 15z m457 -656 c287 -42 528 -133 765 -291 505 -336 807 -900 808
-1510 0 -500 -185 -950 -535 -1299 -199 -197 -412 -334 -664 -423 -827 -296
-1721 17 -2184 764 -245 394 -327 903 -220 1360 81 347 237 629 487 880 238
238 516 396 856 486 181 47 488 62 687 33z"/>
<path d="M6516 5199 c-215 -22 -466 -106 -651 -218 -273 -164 -477 -388 -626
-683 -71 -141 -65 -257 18 -343 95 -98 249 -103 355 -13 15 13 55 75 89 138
106 199 215 323 380 433 102 67 196 110 309 142 238 67 443 56 705 -35 102
-36 163 -37 232 -2 90 47 151 157 140 254 -8 61 -47 135 -92 171 -60 48 -264
116 -439 147 -87 15 -318 20 -420 9z"/>
</g>
</svg>
